<svg width="50" height="50" viewBox="0 0 50 50" fill="none" xmlns="http://www.w3.org/2000/svg">
<g clip-path="url(#clip0)">
<path d="M24.9904 27.0565V47.9533H36.652V22.4395L24.9904 27.0565Z" fill="#2F5BEA"/>
<path d="M1.66699 47.9534H13.3287V10.9875L1.66699 19.0454V47.9534Z" fill="#2F5BEA"/>
<path d="M2.58132 12.557L14.4633 4.35851L25.9644 20.1773C26.396 20.7715 27.1755 20.9981 27.8584 20.7275L48.9056 12.4042C49.4692 12.2141 49.8819 11.7284 49.9785 11.1417C50.0755 10.5546 49.8403 9.96237 49.3679 9.60148C48.895 9.24058 48.2616 9.1699 47.7209 9.41808L27.8309 17.2819L16.1437 1.20158C15.63 0.494713 14.6463 0.32703 13.9277 0.823798L0.752511 9.91407C0.251816 10.229 -0.0360346 10.7933 0.00362835 11.3836C0.0432913 11.9738 0.403792 12.4949 0.942186 12.74C1.48058 12.985 2.11008 12.9147 2.58132 12.557Z" fill="white"/>
<path d="M47.7215 16.3393L41.4775 18.8075V22.2656L46.7052 20.1964V46.3139H38.2605V20.0822L25.5598 25.1017L18.1542 14.9134V20.3822L23.3818 27.5753V46.3147H14.9372V10.4865C14.6065 10.0557 14.4345 9.73878 13.9319 9.53419C12.5146 8.95534 12.645 9.80319 0.752376 17.7338C0.31844 18.0338 0.0588645 18.5275 0.0584717 19.0552V47.9196C0.0584717 48.8083 0.778295 49.5281 1.66698 49.5281H8.50314V46.3139H3.27549V19.8972L11.7202 14.0711V49.5258H26.5989V28.1455L35.0435 24.8064V46.3139H29.8159V49.5258H48.3137C49.202 49.5258 49.9222 48.8056 49.9222 47.9173V17.8304C49.9206 17.2983 49.6564 16.8015 49.2157 16.5031C48.7755 16.205 48.2163 16.1434 47.7215 16.3393Z" fill="white"/>
</g>
<defs>
<clipPath id="clip0">
<rect width="50" height="50" fill="white"/>
</clipPath>
</defs>
</svg>
