<svg width="48" height="48" viewBox="0 0 48 48" fill="none" xmlns="http://www.w3.org/2000/svg">
<path d="M1.5484 5.96594H46.4516V12.1595H1.5484V5.96594Z" fill="#4370FF"/>
<path d="M11.0198 27.0745H19.6732V35.7274H11.0198V27.0745Z" fill="#4370FF"/>
<path d="M19.6732 27.0745H28.3261V35.7274H19.6732V27.0745Z" fill="#4370FF"/>
<path d="M28.3268 27.0745H36.9802V35.7274H28.3268V27.0745Z" fill="#4370FF"/>
<path d="M11.0198 18.4211H19.6732V27.0745H11.0198V18.4211Z" fill="#4370FF"/>
<path d="M9.47144 16.8149V37.3844H38.5286V25.539H21.2216V16.8149H9.47144ZM18.1248 34.2626H12.5682V28.6607H18.1248V34.2626ZM18.1248 25.539H12.5682V19.937H18.1248V25.539ZM29.8753 28.6607H35.4319V34.2626H29.8753V28.6607ZM26.7785 28.6607V34.2626H21.2216V28.6607H26.7785Z" fill="white"/>
<path d="M48 7.38054V4.25806H0V13.6259H44.9032V40.6195H3.09677V16.7457H0V43.7419H48V10.5019H3.09677V7.38054H48Z" fill="white"/>
</svg>
