<svg width="50" height="50" viewBox="0 0 50 50" fill="none" xmlns="http://www.w3.org/2000/svg">
<path d="M1.61292 21.4679H17.2041V33.5816H1.61292V21.4679Z" fill="#4370FF"/>
<path d="M17.2041 33.5242H32.7952V45.5646H17.2041V33.5242Z" fill="#4370FF"/>
<path d="M32.7952 21.4679H48.3863V33.5816H32.7952V21.4679Z" fill="#4370FF"/>
<path d="M50 10.8088V7.58298H42.204V2.82263H38.9782V7.58062H26.6129V2.82263H23.3871V7.58062H11.0218V2.82263H7.79596V7.58062H0V23.0977H15.5911V31.9112H3.22581V26.3066H0V47.1775H50V38.4203H46.7742V43.9517H34.4089V35.1945H50V14.0346H46.7742V19.855H3.22581V10.8088H50ZM15.5911 43.9517H3.22581V35.1945H15.5911V43.9517ZM34.4089 23.0977H46.7742V31.9112H34.4089V23.0977ZM18.8169 23.0977H31.1831V31.9112H18.8169V23.0977ZM18.8169 35.1945H31.1831V43.9517H18.8169V35.1945Z" fill="white"/>
</svg>
