<svg width="52" height="52" viewBox="0 0 52 52" fill="none" xmlns="http://www.w3.org/2000/svg">
<g clip-path="url(#clip0)">
<path d="M21.4648 24.0542L16.7937 28.7249C20.9087 31.9938 26.8207 31.6572 30.538 27.9423L35.2054 23.2741C31.0925 20.0048 25.1813 20.3402 21.4648 24.0542Z" fill="#4370FF"/>
<path d="M25.1777 41.717C25.1777 42.6433 25.9287 43.3944 26.8551 43.3944H29.0584L26.3174 46.1059C22.8687 49.4968 17.3384 49.4968 13.8893 46.1059C12.2475 44.4915 11.3232 42.2858 11.3232 39.983C11.3232 37.6806 12.2475 35.4749 13.8893 33.8605L16.8887 30.893C21.6659 33.7761 27.7905 33.0533 31.765 29.137L40.4692 20.5241C42.7486 18.2795 44.0321 15.2141 44.0321 12.0153C44.0321 8.81603 42.7486 5.7511 40.4692 3.50646C35.7063 -1.17203 28.0722 -1.16834 23.3143 3.51465L20.6061 6.23312V4.00527C20.6061 3.07891 19.855 2.32783 18.9286 2.32783C18.0018 2.32783 17.2512 3.07891 17.2512 4.00527V11.9731H25.2121C26.1384 11.9731 26.8895 11.2224 26.8895 10.2957C26.8895 9.36931 26.1384 8.61823 25.2121 8.61823H22.9695L25.6818 5.89689C29.1313 2.50638 34.6616 2.50638 38.1107 5.89689C39.7521 7.51127 40.6764 9.717 40.6764 12.0194C40.6764 14.3218 39.7521 16.5275 38.1107 18.1419L35.1117 21.1093C30.3349 18.2222 24.2079 18.945 20.2342 22.865L11.53 31.4742C9.25057 33.7188 7.9671 36.7842 7.9671 39.983C7.9671 43.1823 9.25057 46.2476 11.53 48.4918C16.2884 53.1695 23.9175 53.1695 28.6759 48.4918L31.4615 45.7361V48.0004C31.4615 48.9268 32.2126 49.6778 33.1389 49.6778C34.0653 49.6778 34.8164 48.9268 34.8164 48.0004V40.0326H26.8551C26.4091 40.0326 25.9816 40.2103 25.6666 40.5265C25.3517 40.8422 25.176 41.271 25.1777 41.717ZM22.6517 25.2395C25.2563 22.6344 29.223 21.9616 32.541 23.562L29.3545 26.7547C26.7486 29.363 22.7774 30.0363 19.4577 28.4322L22.6517 25.2395Z" fill="white"/>
<path d="M39.5751 26.1285L37.0045 28.6721C38.021 31.76 37.2207 35.1575 34.9327 37.4668L37.3047 39.8405C40.9057 36.2202 41.8169 30.7161 39.5751 26.1285Z" fill="white"/>
<path d="M14.9975 23.3236C13.9889 20.2419 14.7833 16.8547 17.0571 14.5433L14.6846 12.1688C11.1045 15.7969 10.1974 21.2862 12.4199 25.8734L14.9975 23.3236Z" fill="white"/>
</g>
<defs>
<clipPath id="clip0">
<rect width="52" height="52" fill="white"/>
</clipPath>
</defs>
</svg>
