<svg width="52" height="52" viewBox="0 0 52 52" fill="none" xmlns="http://www.w3.org/2000/svg">
<g clip-path="url(#clip0)">
<path d="M1.67739 14.6036V43.0207C1.67083 45.1936 3.42688 46.9607 5.60024 46.9677H46.4001C48.5731 46.9607 50.3291 45.1936 50.3225 43.0207V14.6036H1.67739ZM40.4743 27.6036C38.6216 27.6036 37.1194 26.1015 37.1194 24.2488C37.1194 22.3957 38.6216 20.894 40.4743 20.894C42.3274 20.894 43.8291 22.3957 43.8291 24.2488C43.8299 26.1019 42.3278 27.6045 40.4743 27.6045V27.6036Z" fill="#2F5BEA"/>
<path d="M27.0066 37.3378C25.5613 37.3378 24.9045 36.3504 23.7504 34.0997C22.7004 32.0512 21.263 29.246 17.8729 29.246C14.0987 29.246 11.7611 33.0889 9.88264 36.1776C9.3396 37.1744 8.69051 38.1093 7.94599 38.9656C7.07124 39.0836 6.43811 39.8592 6.49667 40.7397C6.55565 41.6202 7.28665 42.3045 8.16918 42.3053C10.0804 42.3053 11.2586 40.3711 12.7485 37.9214C14.1147 35.6755 15.9858 32.6008 17.8729 32.6008C19.0855 32.6008 19.6863 33.5235 20.7654 35.6292C21.856 37.7661 23.3597 40.6926 27.0066 40.6926C31.0969 40.6926 33.3387 36.6449 35.5059 32.7306C36.2528 31.3128 37.083 29.9405 37.9925 28.621C40.1282 29.8394 42.8302 29.3459 44.3975 27.4518C45.9644 25.5578 45.9431 22.8111 44.3467 20.9416C42.7504 19.0717 40.041 18.6204 37.9245 19.8719C35.8085 21.123 34.8981 23.7145 35.7667 26.0144C34.5631 27.6201 33.4943 29.3225 32.5712 31.1044C30.8754 34.1693 29.1218 37.3378 27.0066 37.3378ZM40.4726 22.5764C41.399 22.5764 42.15 23.3275 42.15 24.2538C42.15 25.1802 41.399 25.9312 40.4726 25.9312C39.5463 25.9312 38.7952 25.1802 38.7952 24.2538C38.7944 23.8079 38.9705 23.3799 39.2858 23.0646C39.6007 22.7488 40.0287 22.5719 40.4742 22.5723L40.4726 22.5764Z" fill="white"/>
<path d="M42.8893 32.3743H40.9289C40.0025 32.3743 39.2515 33.1253 39.2515 34.0517C39.2515 34.978 40.0025 35.7291 40.9289 35.7291H42.8901C43.8164 35.7291 44.5675 34.978 44.5675 34.0517C44.5675 33.1253 43.8164 32.3743 42.8901 32.3743H42.8893Z" fill="white"/>
<path d="M42.8893 38.832H40.9289C40.0025 38.832 39.2515 39.5831 39.2515 40.5095C39.2515 41.4362 40.0025 42.1869 40.9289 42.1869H42.8901C43.8164 42.1869 44.5675 41.4362 44.5675 40.5095C44.5675 39.5831 43.8164 38.832 42.8901 38.832H42.8893Z" fill="white"/>
<path d="M52 9.57147V8.97929C52.0029 5.88082 49.4974 3.3651 46.3989 3.35486H5.60109C2.50262 3.3651 -0.00286423 5.88082 2.45752e-06 8.97929V16.2811H48.6452V43.0207C48.648 44.2661 47.6447 45.2801 46.3989 45.2903H5.60109C4.35531 45.2801 3.35197 44.2661 3.35484 43.0207V19.636H2.45752e-06V43.0207C-0.00286423 46.1192 2.50262 48.6349 5.60109 48.6452H46.3989C49.4974 48.6349 52.0029 46.1192 52 43.0207V12.9263H3.35484V8.97929C3.35197 7.73392 4.35531 6.71993 5.60109 6.7097H46.3989C47.6447 6.71993 48.648 7.73392 48.6452 8.97929V9.57147H52Z" fill="white"/>
</g>
<defs>
<clipPath id="clip0">
<rect width="52" height="52" fill="white"/>
</clipPath>
</defs>
</svg>
