<svg width="51" height="51" viewBox="0 0 51 51" fill="none" xmlns="http://www.w3.org/2000/svg">
<g clip-path="url(#clip0)">
<path d="M9.44958 42.738H41.5302V49.3187H9.44958V42.738Z" fill="#4370FF"/>
<path d="M34.4356 10.4815C34.4356 5.54362 30.4307 1.54077 25.49 1.54077C20.5497 1.54077 16.5444 5.54362 16.5444 10.4815C16.5444 15.419 20.5497 19.4219 25.49 19.4219C30.4307 19.4219 34.4356 15.419 34.4356 10.4815Z" fill="#4370FF"/>
<path d="M29.4575 41.115C40.1322 37.8387 39.0232 26.5692 39.053 26.4716C38.4673 26.5857 32.0172 25.5281 27.132 31.2171V20.9192C32.2811 20.1094 36.0747 15.6728 36.0755 10.4606C36.0759 5.24837 32.2831 0.810933 27.1344 0V3.34776C30.7484 4.1844 33.1595 7.59883 32.7386 11.2844C32.3177 14.9695 29.1985 17.7526 25.4892 17.7526C21.78 17.7526 18.6612 14.9695 18.2402 11.2844C17.8193 7.59883 20.2304 4.1844 23.8441 3.34776V0C18.6953 0.810129 14.9021 5.24716 14.9021 10.4594C14.9021 15.6716 18.6953 20.1086 23.8441 20.9192V25.2441C18.9612 19.5576 12.4982 20.6115 11.9235 20.4986C12.0162 20.7537 10.4747 33.9997 23.8441 35.6284V41.115H7.81458V44.4101H39.8755V47.7049H7.81458V51H43.1659V41.115H29.4575ZM15.3716 23.9528C19.6123 24.7208 22.9283 28.0437 23.6878 32.2855C19.4476 31.5175 16.1316 28.1947 15.3716 23.9528ZM35.6072 29.9246C34.8477 34.1668 31.5308 37.4897 27.2898 38.2572C28.0501 34.015 31.3674 30.6917 35.6088 29.9246H35.6072Z" fill="white"/>
</g>
<defs>
<clipPath id="clip0">
<rect width="51" height="51" fill="white"/>
</clipPath>
</defs>
</svg>
