<svg width="48" height="48" viewBox="0 0 48 48" fill="none" xmlns="http://www.w3.org/2000/svg">
<g clip-path="url(#clip0)">
<path d="M37.0366 1.54834V31.0614H12.3981L7.1969 37.0365H6.42271V31.0614H1.54846V1.54834H37.0366Z" fill="#2F5BEA"/>
<path d="M41.6818 15.9337V19.0305H44.9033V38.9282H40.0733V43.204L36.3516 38.9282H17.9581V32.6099H38.585V15.9337H35.4882V29.5131H14.8613V42.0249H34.9408L40.1421 48H43.17V42.0249H48.0001V15.9337H41.6818Z" fill="white"/>
<path d="M0 0V3.09677H35.4882V29.5131H11.6927L7.97102 33.7889V29.5131H3.09677V6.19355H0V32.6099H4.87424V38.5849H7.90222L13.1031 32.6099H38.5849V0H0Z" fill="white"/>
</g>
<defs>
<clipPath id="clip0">
<rect width="48" height="48" fill="white"/>
</clipPath>
</defs>
</svg>
