<svg width="1365" height="407" viewBox="0 0 1365 407" fill="none" xmlns="http://www.w3.org/2000/svg">
<path opacity="0.0382022" d="M1013.78 403.816C1016.76 400.715 1070.67 321.578 1193.85 323.855C1317.03 326.133 1361.71 226 1361.71 226" stroke="#2C2E30" stroke-width="6" stroke-linecap="round"/>
<path opacity="0.100656" d="M3 65.0742C3 65.0742 83.2812 42.8828 101.387 94.9101C119.492 146.937 167.02 119.098 195.523 126.367C224.027 133.637 227.773 166.234 230.625 183.832" stroke="#2C2E30" stroke-width="5" stroke-linecap="round"/>
<path opacity="0.0407599" fill-rule="evenodd" clip-rule="evenodd" d="M973.281 196C980.737 196 986.781 189.956 986.781 182.5C986.781 175.044 980.737 169 973.281 169C965.825 169 959.781 175.044 959.781 182.5C959.781 189.956 965.825 196 973.281 196Z" stroke="#2C2E30" stroke-width="5"/>
<rect opacity="0.122791" x="364.831" y="3.06186" width="27" height="27" transform="rotate(15 364.831 3.06186)" stroke="#2C2E30" stroke-width="5"/>
</svg>
