<svg width="132" height="128" viewBox="0 0 132 128" fill="none" xmlns="http://www.w3.org/2000/svg">
<path fill-rule="evenodd" clip-rule="evenodd" d="M74.1658 1.99959C74.1658 3.10405 73.2731 3.99917 72.1707 3.99917C71.07 3.99917 70.1772 3.10405 70.1772 1.99959C70.1772 0.895118 71.07 0 72.1707 0C73.2731 0 74.1658 0.895118 74.1658 1.99959Z" fill="#1B8BC8"/>
<path fill-rule="evenodd" clip-rule="evenodd" d="M86.1315 1.99959C86.1315 3.10405 85.2388 3.99917 84.1368 3.99917C83.0357 3.99917 82.1429 3.10405 82.1429 1.99959C82.1429 0.895118 83.0357 0 84.1368 0C85.2388 0 86.1315 0.895118 86.1315 1.99959Z" fill="#1B8BC8"/>
<path fill-rule="evenodd" clip-rule="evenodd" d="M97.1 1.99959C97.1 3.10405 96.2071 3.99917 95.1057 3.99917C94.004 3.99917 93.1115 3.10405 93.1115 1.99959C93.1115 0.895118 94.004 0 95.1057 0C96.2071 0 97.1 0.895118 97.1 1.99959Z" fill="#1B8BC8"/>
<path fill-rule="evenodd" clip-rule="evenodd" d="M109.066 1.99959C109.066 3.10405 108.173 3.99917 107.071 3.99917C105.969 3.99917 105.077 3.10405 105.077 1.99959C105.077 0.895118 105.969 0 107.071 0C108.173 0 109.066 0.895118 109.066 1.99959Z" fill="#1B8BC8"/>
<path fill-rule="evenodd" clip-rule="evenodd" d="M120.034 1.99959C120.034 3.10405 119.142 3.99917 118.04 3.99917C116.938 3.99917 116.046 3.10405 116.046 1.99959C116.046 0.895118 116.938 0 118.04 0C119.142 0 120.034 0.895118 120.034 1.99959Z" fill="#1B8BC8"/>
<path fill-rule="evenodd" clip-rule="evenodd" d="M74.1658 12.9974C74.1658 14.1019 73.2731 14.997 72.1707 14.997C71.07 14.997 70.1772 14.1019 70.1772 12.9974C70.1772 11.8934 71.07 10.9978 72.1707 10.9978C73.2731 10.9978 74.1658 11.8934 74.1658 12.9974Z" fill="#1B8BC8"/>
<path fill-rule="evenodd" clip-rule="evenodd" d="M86.1315 12.9974C86.1315 14.1019 85.2388 14.997 84.1368 14.997C83.0357 14.997 82.1429 14.1019 82.1429 12.9974C82.1429 11.8934 83.0357 10.9978 84.1368 10.9978C85.2388 10.9978 86.1315 11.8934 86.1315 12.9974Z" fill="#1B8BC8"/>
<path fill-rule="evenodd" clip-rule="evenodd" d="M97.1 12.9974C97.1 14.1019 96.2071 14.997 95.1057 14.997C94.004 14.997 93.1115 14.1019 93.1115 12.9974C93.1115 11.8934 94.004 10.9978 95.1057 10.9978C96.2071 10.9978 97.1 11.8934 97.1 12.9974Z" fill="#1B8BC8"/>
<path fill-rule="evenodd" clip-rule="evenodd" d="M109.066 12.9974C109.066 14.1019 108.173 14.997 107.071 14.997C105.969 14.997 105.077 14.1019 105.077 12.9974C105.077 11.8934 105.969 10.9978 107.071 10.9978C108.173 10.9978 109.066 11.8934 109.066 12.9974Z" fill="#1B8BC8"/>
<path fill-rule="evenodd" clip-rule="evenodd" d="M120.034 12.9974C120.034 14.1019 119.142 14.997 118.04 14.997C116.938 14.997 116.046 14.1019 116.046 12.9974C116.046 11.8934 116.938 10.9978 118.04 10.9978C119.142 10.9978 120.034 11.8934 120.034 12.9974Z" fill="#1B8BC8"/>
<path fill-rule="evenodd" clip-rule="evenodd" d="M74.1658 25.4949C74.1658 26.8748 73.2731 27.9941 72.1707 27.9941C71.07 27.9941 70.1772 26.8748 70.1772 25.4949C70.1772 24.1144 71.07 22.9951 72.1707 22.9951C73.2731 22.9951 74.1658 24.1144 74.1658 25.4949Z" fill="#1B8BC8"/>
<path fill-rule="evenodd" clip-rule="evenodd" d="M86.1315 25.4949C86.1315 26.8748 85.2388 27.9941 84.1368 27.9941C83.0357 27.9941 82.1429 26.8748 82.1429 25.4949C82.1429 24.1144 83.0357 22.9951 84.1368 22.9951C85.2388 22.9951 86.1315 24.1144 86.1315 25.4949Z" fill="#1B8BC8"/>
<path fill-rule="evenodd" clip-rule="evenodd" d="M97.1 25.4949C97.1 26.8748 96.2071 27.9941 95.1057 27.9941C94.004 27.9941 93.1115 26.8748 93.1115 25.4949C93.1115 24.1144 94.004 22.9951 95.1057 22.9951C96.2071 22.9951 97.1 24.1144 97.1 25.4949Z" fill="#1B8BC8"/>
<path fill-rule="evenodd" clip-rule="evenodd" d="M109.066 25.4949C109.066 26.8748 108.173 27.9941 107.071 27.9941C105.969 27.9941 105.077 26.8748 105.077 25.4949C105.077 24.1144 105.969 22.9951 107.071 22.9951C108.173 22.9951 109.066 24.1144 109.066 25.4949Z" fill="#1B8BC8"/>
<path fill-rule="evenodd" clip-rule="evenodd" d="M120.034 25.4949C120.034 26.8748 119.142 27.9941 118.04 27.9941C116.938 27.9941 116.046 26.8748 116.046 25.4949C116.046 24.1144 116.938 22.9951 118.04 22.9951C119.142 22.9951 120.034 24.1144 120.034 25.4949Z" fill="#1B8BC8"/>
<path fill-rule="evenodd" clip-rule="evenodd" d="M74.1658 36.4921C74.1658 37.8726 73.2731 38.9919 72.1707 38.9919C71.07 38.9919 70.1772 37.8726 70.1772 36.4921C70.1772 35.1122 71.07 33.9929 72.1707 33.9929C73.2731 33.9929 74.1658 35.1122 74.1658 36.4921Z" fill="#1B8BC8"/>
<path fill-rule="evenodd" clip-rule="evenodd" d="M86.1315 36.4921C86.1315 37.8726 85.2388 38.9919 84.1368 38.9919C83.0357 38.9919 82.1429 37.8726 82.1429 36.4921C82.1429 35.1122 83.0357 33.9929 84.1368 33.9929C85.2388 33.9929 86.1315 35.1122 86.1315 36.4921Z" fill="#1B8BC8"/>
<path fill-rule="evenodd" clip-rule="evenodd" d="M97.1 36.4921C97.1 37.8726 96.2071 38.9919 95.1057 38.9919C94.004 38.9919 93.1115 37.8726 93.1115 36.4921C93.1115 35.1122 94.004 33.9929 95.1057 33.9929C96.2071 33.9929 97.1 35.1122 97.1 36.4921Z" fill="#1B8BC8"/>
<path fill-rule="evenodd" clip-rule="evenodd" d="M109.066 36.4921C109.066 37.8726 108.173 38.9919 107.071 38.9919C105.969 38.9919 105.077 37.8726 105.077 36.4921C105.077 35.1122 105.969 33.9929 107.071 33.9929C108.173 33.9929 109.066 35.1122 109.066 36.4921Z" fill="#1B8BC8"/>
<path fill-rule="evenodd" clip-rule="evenodd" d="M120.034 36.4921C120.034 37.8726 119.142 38.9919 118.04 38.9919C116.938 38.9919 116.046 37.8726 116.046 36.4921C116.046 35.1122 116.938 33.9929 118.04 33.9929C119.142 33.9929 120.034 35.1122 120.034 36.4921Z" fill="#1B8BC8"/>
<path fill-rule="evenodd" clip-rule="evenodd" d="M74.1658 47.9901C74.1658 49.0941 73.2731 49.9896 72.1707 49.9896C71.07 49.9896 70.1772 49.0941 70.1772 47.9901C70.1772 46.8856 71.07 45.9905 72.1707 45.9905C73.2731 45.9905 74.1658 46.8856 74.1658 47.9901Z" fill="#1B8BC8"/>
<path fill-rule="evenodd" clip-rule="evenodd" d="M86.1315 47.9901C86.1315 49.0941 85.2388 49.9896 84.1368 49.9896C83.0357 49.9896 82.1429 49.0941 82.1429 47.9901C82.1429 46.8856 83.0357 45.9905 84.1368 45.9905C85.2388 45.9905 86.1315 46.8856 86.1315 47.9901Z" fill="#1B8BC8"/>
<path fill-rule="evenodd" clip-rule="evenodd" d="M97.1 47.9901C97.1 49.0941 96.2071 49.9896 95.1057 49.9896C94.004 49.9896 93.1115 49.0941 93.1115 47.9901C93.1115 46.8856 94.004 45.9905 95.1057 45.9905C96.2071 45.9905 97.1 46.8856 97.1 47.9901Z" fill="#1B8BC8"/>
<path fill-rule="evenodd" clip-rule="evenodd" d="M109.066 47.9901C109.066 49.0941 108.173 49.9896 107.071 49.9896C105.969 49.9896 105.077 49.0941 105.077 47.9901C105.077 46.8856 105.969 45.9905 107.071 45.9905C108.173 45.9905 109.066 46.8856 109.066 47.9901Z" fill="#1B8BC8"/>
<path fill-rule="evenodd" clip-rule="evenodd" d="M120.034 47.9901C120.034 49.0941 119.142 49.9896 118.04 49.9896C116.938 49.9896 116.046 49.0941 116.046 47.9901C116.046 46.8856 116.938 45.9905 118.04 45.9905C119.142 45.9905 120.034 46.8856 120.034 47.9901Z" fill="#1B8BC8"/>
<path fill-rule="evenodd" clip-rule="evenodd" d="M74.1658 58.9879C74.1658 60.0923 73.2731 60.9875 72.1707 60.9875C71.07 60.9875 70.1772 60.0923 70.1772 58.9879C70.1772 57.8834 71.07 56.9883 72.1707 56.9883C73.2731 56.9883 74.1658 57.8834 74.1658 58.9879Z" fill="#1B8BC8"/>
<path fill-rule="evenodd" clip-rule="evenodd" d="M86.1315 58.9879C86.1315 60.0923 85.2388 60.9875 84.1368 60.9875C83.0357 60.9875 82.1429 60.0923 82.1429 58.9879C82.1429 57.8834 83.0357 56.9883 84.1368 56.9883C85.2388 56.9883 86.1315 57.8834 86.1315 58.9879Z" fill="#1B8BC8"/>
<path fill-rule="evenodd" clip-rule="evenodd" d="M97.1 58.9879C97.1 60.0923 96.2071 60.9875 95.1057 60.9875C94.004 60.9875 93.1115 60.0923 93.1115 58.9879C93.1115 57.8834 94.004 56.9883 95.1057 56.9883C96.2071 56.9883 97.1 57.8834 97.1 58.9879Z" fill="#1B8BC8"/>
<path fill-rule="evenodd" clip-rule="evenodd" d="M109.066 58.9879C109.066 60.0923 108.173 60.9875 107.071 60.9875C105.969 60.9875 105.077 60.0923 105.077 58.9879C105.077 57.8834 105.969 56.9883 107.071 56.9883C108.173 56.9883 109.066 57.8834 109.066 58.9879Z" fill="#1B8BC8"/>
<path fill-rule="evenodd" clip-rule="evenodd" d="M120.034 58.9879C120.034 60.0923 119.142 60.9875 118.04 60.9875C116.938 60.9875 116.046 60.0923 116.046 58.9879C116.046 57.8834 116.938 56.9883 118.04 56.9883C119.142 56.9883 120.034 57.8834 120.034 58.9879Z" fill="#1B8BC8"/>
<path fill-rule="evenodd" clip-rule="evenodd" d="M132 1.99959C132 3.10405 131.108 3.99917 130.005 3.99917C128.904 3.99917 128.011 3.10405 128.011 1.99959C128.011 0.895118 128.904 0 130.005 0C131.108 0 132 0.895118 132 1.99959Z" fill="#1B8BC8"/>
<path fill-rule="evenodd" clip-rule="evenodd" d="M132 12.9974C132 14.1019 131.108 14.997 130.005 14.997C128.904 14.997 128.011 14.1019 128.011 12.9974C128.011 11.8934 128.904 10.9978 130.005 10.9978C131.108 10.9978 132 11.8934 132 12.9974Z" fill="#1B8BC8"/>
<path fill-rule="evenodd" clip-rule="evenodd" d="M132 25.4949C132 26.8748 131.108 27.9941 130.005 27.9941C128.904 27.9941 128.011 26.8748 128.011 25.4949C128.011 24.1144 128.904 22.9951 130.005 22.9951C131.108 22.9951 132 24.1144 132 25.4949Z" fill="#1B8BC8"/>
<path fill-rule="evenodd" clip-rule="evenodd" d="M132 36.4921C132 37.8726 131.108 38.9919 130.005 38.9919C128.904 38.9919 128.011 37.8726 128.011 36.4921C128.011 35.1122 128.904 33.9929 130.005 33.9929C131.108 33.9929 132 35.1122 132 36.4921Z" fill="#1B8BC8"/>
<path fill-rule="evenodd" clip-rule="evenodd" d="M132 47.9901C132 49.0941 131.108 49.9896 130.005 49.9896C128.904 49.9896 128.011 49.0941 128.011 47.9901C128.011 46.8856 128.904 45.9905 130.005 45.9905C131.108 45.9905 132 46.8856 132 47.9901Z" fill="#1B8BC8"/>
<path fill-rule="evenodd" clip-rule="evenodd" d="M132 58.9879C132 60.0923 131.108 60.9875 130.005 60.9875C128.904 60.9875 128.011 60.0923 128.011 58.9879C128.011 57.8834 128.904 56.9883 130.005 56.9883C131.108 56.9883 132 57.8834 132 58.9879Z" fill="#1B8BC8"/>
<path fill-rule="evenodd" clip-rule="evenodd" d="M3.98857 68.835C3.98857 69.9395 3.09582 70.8346 1.99342 70.8346C0.892745 70.8346 0 69.9395 0 68.835C0 67.7306 0.892745 66.8354 1.99342 66.8354C3.09582 66.8354 3.98857 67.7306 3.98857 68.835Z" fill="#1B8BC8"/>
<path fill-rule="evenodd" clip-rule="evenodd" d="M15.9543 68.835C15.9543 69.9395 15.0615 70.8346 13.9596 70.8346C12.8584 70.8346 11.9657 69.9395 11.9657 68.835C11.9657 67.7306 12.8584 66.8354 13.9596 66.8354C15.0615 66.8354 15.9543 67.7306 15.9543 68.835Z" fill="#1B8BC8"/>
<path fill-rule="evenodd" clip-rule="evenodd" d="M26.9228 68.835C26.9228 69.9395 26.0298 70.8346 24.9285 70.8346C23.8267 70.8346 22.9342 69.9395 22.9342 68.835C22.9342 67.7306 23.8267 66.8354 24.9285 66.8354C26.0298 66.8354 26.9228 67.7306 26.9228 68.835Z" fill="#1B8BC8"/>
<path fill-rule="evenodd" clip-rule="evenodd" d="M38.8885 68.835C38.8885 69.9395 37.9955 70.8346 36.8933 70.8346C35.792 70.8346 34.8999 69.9395 34.8999 68.835C34.8999 67.7306 35.792 66.8354 36.8933 66.8354C37.9955 66.8354 38.8885 67.7306 38.8885 68.835Z" fill="#1B8BC8"/>
<path fill-rule="evenodd" clip-rule="evenodd" d="M49.8571 68.835C49.8571 69.9395 48.9648 70.8346 47.8624 70.8346C46.7613 70.8346 45.8685 69.9395 45.8685 68.835C45.8685 67.7306 46.7613 66.8354 47.8624 66.8354C48.9648 66.8354 49.8571 67.7306 49.8571 68.835Z" fill="#1B8BC8"/>
<path fill-rule="evenodd" clip-rule="evenodd" d="M3.98857 79.8328C3.98857 80.9373 3.09582 81.8324 1.99342 81.8324C0.892745 81.8324 0 80.9373 0 79.8328C0 78.7288 0.892745 77.8333 1.99342 77.8333C3.09582 77.8333 3.98857 78.7288 3.98857 79.8328Z" fill="#1B8BC8"/>
<path fill-rule="evenodd" clip-rule="evenodd" d="M15.9543 79.8328C15.9543 80.9373 15.0615 81.8324 13.9596 81.8324C12.8584 81.8324 11.9657 80.9373 11.9657 79.8328C11.9657 78.7288 12.8584 77.8333 13.9596 77.8333C15.0615 77.8333 15.9543 78.7288 15.9543 79.8328Z" fill="#1B8BC8"/>
<path fill-rule="evenodd" clip-rule="evenodd" d="M26.9228 79.8328C26.9228 80.9373 26.0298 81.8324 24.9285 81.8324C23.8267 81.8324 22.9342 80.9373 22.9342 79.8328C22.9342 78.7288 23.8267 77.8333 24.9285 77.8333C26.0298 77.8333 26.9228 78.7288 26.9228 79.8328Z" fill="#1B8BC8"/>
<path fill-rule="evenodd" clip-rule="evenodd" d="M38.8885 79.8328C38.8885 80.9373 37.9955 81.8324 36.8933 81.8324C35.792 81.8324 34.8999 80.9373 34.8999 79.8328C34.8999 78.7288 35.792 77.8333 36.8933 77.8333C37.9955 77.8333 38.8885 78.7288 38.8885 79.8328Z" fill="#1B8BC8"/>
<path fill-rule="evenodd" clip-rule="evenodd" d="M49.8571 79.8328C49.8571 80.9373 48.9648 81.8324 47.8624 81.8324C46.7613 81.8324 45.8685 80.9373 45.8685 79.8328C45.8685 78.7288 46.7613 77.8333 47.8624 77.8333C48.9648 77.8333 49.8571 78.7288 49.8571 79.8328Z" fill="#1B8BC8"/>
<path fill-rule="evenodd" clip-rule="evenodd" d="M3.98857 92.3303C3.98857 93.7102 3.09582 94.8295 1.99342 94.8295C0.892745 94.8295 0 93.7102 0 92.3303C0 90.9499 0.892745 89.8306 1.99342 89.8306C3.09582 89.8306 3.98857 90.9499 3.98857 92.3303Z" fill="#1B8BC8"/>
<path fill-rule="evenodd" clip-rule="evenodd" d="M15.9543 92.3303C15.9543 93.7102 15.0615 94.8295 13.9596 94.8295C12.8584 94.8295 11.9657 93.7102 11.9657 92.3303C11.9657 90.9499 12.8584 89.8306 13.9596 89.8306C15.0615 89.8306 15.9543 90.9499 15.9543 92.3303Z" fill="#1B8BC8"/>
<path fill-rule="evenodd" clip-rule="evenodd" d="M26.9228 92.3303C26.9228 93.7102 26.0298 94.8295 24.9285 94.8295C23.8267 94.8295 22.9342 93.7102 22.9342 92.3303C22.9342 90.9499 23.8267 89.8306 24.9285 89.8306C26.0298 89.8306 26.9228 90.9499 26.9228 92.3303Z" fill="#1B8BC8"/>
<path fill-rule="evenodd" clip-rule="evenodd" d="M38.8885 92.3303C38.8885 93.7102 37.9955 94.8295 36.8933 94.8295C35.792 94.8295 34.8999 93.7102 34.8999 92.3303C34.8999 90.9499 35.792 89.8306 36.8933 89.8306C37.9955 89.8306 38.8885 90.9499 38.8885 92.3303Z" fill="#1B8BC8"/>
<path fill-rule="evenodd" clip-rule="evenodd" d="M49.8571 92.3303C49.8571 93.7102 48.9648 94.8295 47.8624 94.8295C46.7613 94.8295 45.8685 93.7102 45.8685 92.3303C45.8685 90.9499 46.7613 89.8306 47.8624 89.8306C48.9648 89.8306 49.8571 90.9499 49.8571 92.3303Z" fill="#1B8BC8"/>
<path fill-rule="evenodd" clip-rule="evenodd" d="M3.98857 103.328C3.98857 104.708 3.09582 105.827 1.99342 105.827C0.892745 105.827 0 104.708 0 103.328C0 101.948 0.892745 100.828 1.99342 100.828C3.09582 100.828 3.98857 101.948 3.98857 103.328Z" fill="#1B8BC8"/>
<path fill-rule="evenodd" clip-rule="evenodd" d="M15.9543 103.328C15.9543 104.708 15.0615 105.827 13.9596 105.827C12.8584 105.827 11.9657 104.708 11.9657 103.328C11.9657 101.948 12.8584 100.828 13.9596 100.828C15.0615 100.828 15.9543 101.948 15.9543 103.328Z" fill="#1B8BC8"/>
<path fill-rule="evenodd" clip-rule="evenodd" d="M26.9228 103.328C26.9228 104.708 26.0298 105.827 24.9285 105.827C23.8267 105.827 22.9342 104.708 22.9342 103.328C22.9342 101.948 23.8267 100.828 24.9285 100.828C26.0298 100.828 26.9228 101.948 26.9228 103.328Z" fill="#1B8BC8"/>
<path fill-rule="evenodd" clip-rule="evenodd" d="M38.8885 103.328C38.8885 104.708 37.9955 105.827 36.8933 105.827C35.792 105.827 34.8999 104.708 34.8999 103.328C34.8999 101.948 35.792 100.828 36.8933 100.828C37.9955 100.828 38.8885 101.948 38.8885 103.328Z" fill="#1B8BC8"/>
<path fill-rule="evenodd" clip-rule="evenodd" d="M49.8571 103.328C49.8571 104.708 48.9648 105.827 47.8624 105.827C46.7613 105.827 45.8685 104.708 45.8685 103.328C45.8685 101.948 46.7613 100.828 47.8624 100.828C48.9648 100.828 49.8571 101.948 49.8571 103.328Z" fill="#1B8BC8"/>
<path fill-rule="evenodd" clip-rule="evenodd" d="M3.98857 114.826C3.98857 115.93 3.09582 116.825 1.99342 116.825C0.892745 116.825 0 115.93 0 114.826C0 113.721 0.892745 112.826 1.99342 112.826C3.09582 112.826 3.98857 113.721 3.98857 114.826Z" fill="#1B8BC8"/>
<path fill-rule="evenodd" clip-rule="evenodd" d="M15.9543 114.826C15.9543 115.93 15.0615 116.825 13.9596 116.825C12.8584 116.825 11.9657 115.93 11.9657 114.826C11.9657 113.721 12.8584 112.826 13.9596 112.826C15.0615 112.826 15.9543 113.721 15.9543 114.826Z" fill="#1B8BC8"/>
<path fill-rule="evenodd" clip-rule="evenodd" d="M26.9228 114.826C26.9228 115.93 26.0298 116.825 24.9285 116.825C23.8267 116.825 22.9342 115.93 22.9342 114.826C22.9342 113.721 23.8267 112.826 24.9285 112.826C26.0298 112.826 26.9228 113.721 26.9228 114.826Z" fill="#1B8BC8"/>
<path fill-rule="evenodd" clip-rule="evenodd" d="M38.8885 114.826C38.8885 115.93 37.9955 116.825 36.8933 116.825C35.792 116.825 34.8999 115.93 34.8999 114.826C34.8999 113.721 35.792 112.826 36.8933 112.826C37.9955 112.826 38.8885 113.721 38.8885 114.826Z" fill="#1B8BC8"/>
<path fill-rule="evenodd" clip-rule="evenodd" d="M49.8571 114.826C49.8571 115.93 48.9648 116.825 47.8624 116.825C46.7613 116.825 45.8685 115.93 45.8685 114.826C45.8685 113.721 46.7613 112.826 47.8624 112.826C48.9648 112.826 49.8571 113.721 49.8571 114.826Z" fill="#1B8BC8"/>
<path fill-rule="evenodd" clip-rule="evenodd" d="M3.98857 125.823C3.98857 126.928 3.09582 127.823 1.99342 127.823C0.892745 127.823 0 126.928 0 125.823C0 124.719 0.892745 123.824 1.99342 123.824C3.09582 123.824 3.98857 124.719 3.98857 125.823Z" fill="#1B8BC8"/>
<path fill-rule="evenodd" clip-rule="evenodd" d="M15.9543 125.823C15.9543 126.928 15.0615 127.823 13.9596 127.823C12.8584 127.823 11.9657 126.928 11.9657 125.823C11.9657 124.719 12.8584 123.824 13.9596 123.824C15.0615 123.824 15.9543 124.719 15.9543 125.823Z" fill="#1B8BC8"/>
<path fill-rule="evenodd" clip-rule="evenodd" d="M26.9228 125.823C26.9228 126.928 26.0298 127.823 24.9285 127.823C23.8267 127.823 22.9342 126.928 22.9342 125.823C22.9342 124.719 23.8267 123.824 24.9285 123.824C26.0298 123.824 26.9228 124.719 26.9228 125.823Z" fill="#1B8BC8"/>
<path fill-rule="evenodd" clip-rule="evenodd" d="M38.8885 125.823C38.8885 126.928 37.9955 127.823 36.8933 127.823C35.792 127.823 34.8999 126.928 34.8999 125.823C34.8999 124.719 35.792 123.824 36.8933 123.824C37.9955 123.824 38.8885 124.719 38.8885 125.823Z" fill="#1B8BC8"/>
<path fill-rule="evenodd" clip-rule="evenodd" d="M49.8571 125.823C49.8571 126.928 48.9648 127.823 47.8624 127.823C46.7613 127.823 45.8685 126.928 45.8685 125.823C45.8685 124.719 46.7613 123.824 47.8624 123.824C48.9648 123.824 49.8571 124.719 49.8571 125.823Z" fill="#1B8BC8"/>
<path fill-rule="evenodd" clip-rule="evenodd" d="M61.8228 68.835C61.8228 69.9395 60.9305 70.8346 59.8281 70.8346C58.727 70.8346 57.8342 69.9395 57.8342 68.835C57.8342 67.7306 58.727 66.8354 59.8281 66.8354C60.9305 66.8354 61.8228 67.7306 61.8228 68.835Z" fill="#1B8BC8"/>
<path fill-rule="evenodd" clip-rule="evenodd" d="M61.8228 79.8328C61.8228 80.9373 60.9305 81.8324 59.8281 81.8324C58.727 81.8324 57.8342 80.9373 57.8342 79.8328C57.8342 78.7288 58.727 77.8333 59.8281 77.8333C60.9305 77.8333 61.8228 78.7288 61.8228 79.8328Z" fill="#1B8BC8"/>
<path fill-rule="evenodd" clip-rule="evenodd" d="M61.8228 92.3303C61.8228 93.7102 60.9305 94.8295 59.8281 94.8295C58.727 94.8295 57.8342 93.7102 57.8342 92.3303C57.8342 90.9499 58.727 89.8306 59.8281 89.8306C60.9305 89.8306 61.8228 90.9499 61.8228 92.3303Z" fill="#1B8BC8"/>
<path fill-rule="evenodd" clip-rule="evenodd" d="M61.8228 103.328C61.8228 104.708 60.9305 105.827 59.8281 105.827C58.727 105.827 57.8342 104.708 57.8342 103.328C57.8342 101.948 58.727 100.828 59.8281 100.828C60.9305 100.828 61.8228 101.948 61.8228 103.328Z" fill="#1B8BC8"/>
<path fill-rule="evenodd" clip-rule="evenodd" d="M61.8228 114.826C61.8228 115.93 60.9305 116.825 59.8281 116.825C58.727 116.825 57.8342 115.93 57.8342 114.826C57.8342 113.721 58.727 112.826 59.8281 112.826C60.9305 112.826 61.8228 113.721 61.8228 114.826Z" fill="#1B8BC8"/>
<path fill-rule="evenodd" clip-rule="evenodd" d="M61.8228 125.823C61.8228 126.928 60.9305 127.823 59.8281 127.823C58.727 127.823 57.8342 126.928 57.8342 125.823C57.8342 124.719 58.727 123.824 59.8281 123.824C60.9305 123.824 61.8228 124.719 61.8228 125.823Z" fill="#1B8BC8"/>
<path fill-rule="evenodd" clip-rule="evenodd" d="M3.98857 1.99959C3.98857 3.10405 3.09582 3.99917 1.99342 3.99917C0.892745 3.99917 0 3.10405 0 1.99959C0 0.895118 0.892745 0 1.99342 0C3.09582 0 3.98857 0.895118 3.98857 1.99959Z" fill="#1B8BC8"/>
<path fill-rule="evenodd" clip-rule="evenodd" d="M15.9543 1.99959C15.9543 3.10405 15.0615 3.99917 13.9596 3.99917C12.8584 3.99917 11.9657 3.10405 11.9657 1.99959C11.9657 0.895118 12.8584 0 13.9596 0C15.0615 0 15.9543 0.895118 15.9543 1.99959Z" fill="#1B8BC8"/>
<path fill-rule="evenodd" clip-rule="evenodd" d="M26.9228 1.99959C26.9228 3.10405 26.0298 3.99917 24.9285 3.99917C23.8267 3.99917 22.9342 3.10405 22.9342 1.99959C22.9342 0.895118 23.8267 0 24.9285 0C26.0298 0 26.9228 0.895118 26.9228 1.99959Z" fill="#1B8BC8"/>
<path fill-rule="evenodd" clip-rule="evenodd" d="M38.8885 1.99959C38.8885 3.10405 37.9955 3.99917 36.8933 3.99917C35.792 3.99917 34.8999 3.10405 34.8999 1.99959C34.8999 0.895118 35.792 0 36.8933 0C37.9955 0 38.8885 0.895118 38.8885 1.99959Z" fill="#1B8BC8"/>
<path fill-rule="evenodd" clip-rule="evenodd" d="M49.8571 1.99959C49.8571 3.10405 48.9648 3.99917 47.8624 3.99917C46.7613 3.99917 45.8685 3.10405 45.8685 1.99959C45.8685 0.895118 46.7613 0 47.8624 0C48.9648 0 49.8571 0.895118 49.8571 1.99959Z" fill="#1B8BC8"/>
<path fill-rule="evenodd" clip-rule="evenodd" d="M3.98857 12.9974C3.98857 14.1019 3.09582 14.997 1.99342 14.997C0.892745 14.997 0 14.1019 0 12.9974C0 11.8934 0.892745 10.9978 1.99342 10.9978C3.09582 10.9978 3.98857 11.8934 3.98857 12.9974Z" fill="#1B8BC8"/>
<path fill-rule="evenodd" clip-rule="evenodd" d="M15.9543 12.9974C15.9543 14.1019 15.0615 14.997 13.9596 14.997C12.8584 14.997 11.9657 14.1019 11.9657 12.9974C11.9657 11.8934 12.8584 10.9978 13.9596 10.9978C15.0615 10.9978 15.9543 11.8934 15.9543 12.9974Z" fill="#1B8BC8"/>
<path fill-rule="evenodd" clip-rule="evenodd" d="M26.9228 12.9974C26.9228 14.1019 26.0298 14.997 24.9285 14.997C23.8267 14.997 22.9342 14.1019 22.9342 12.9974C22.9342 11.8934 23.8267 10.9978 24.9285 10.9978C26.0298 10.9978 26.9228 11.8934 26.9228 12.9974Z" fill="#1B8BC8"/>
<path fill-rule="evenodd" clip-rule="evenodd" d="M38.8885 12.9974C38.8885 14.1019 37.9955 14.997 36.8933 14.997C35.792 14.997 34.8999 14.1019 34.8999 12.9974C34.8999 11.8934 35.792 10.9978 36.8933 10.9978C37.9955 10.9978 38.8885 11.8934 38.8885 12.9974Z" fill="#1B8BC8"/>
<path fill-rule="evenodd" clip-rule="evenodd" d="M49.8571 12.9974C49.8571 14.1019 48.9648 14.997 47.8624 14.997C46.7613 14.997 45.8685 14.1019 45.8685 12.9974C45.8685 11.8934 46.7613 10.9978 47.8624 10.9978C48.9648 10.9978 49.8571 11.8934 49.8571 12.9974Z" fill="#1B8BC8"/>
<path fill-rule="evenodd" clip-rule="evenodd" d="M3.98857 25.4949C3.98857 26.8748 3.09582 27.9941 1.99342 27.9941C0.892745 27.9941 0 26.8748 0 25.4949C0 24.1144 0.892745 22.9951 1.99342 22.9951C3.09582 22.9951 3.98857 24.1144 3.98857 25.4949Z" fill="#1B8BC8"/>
<path fill-rule="evenodd" clip-rule="evenodd" d="M15.9543 25.4949C15.9543 26.8748 15.0615 27.9941 13.9596 27.9941C12.8584 27.9941 11.9657 26.8748 11.9657 25.4949C11.9657 24.1144 12.8584 22.9951 13.9596 22.9951C15.0615 22.9951 15.9543 24.1144 15.9543 25.4949Z" fill="#1B8BC8"/>
<path fill-rule="evenodd" clip-rule="evenodd" d="M26.9228 25.4949C26.9228 26.8748 26.0298 27.9941 24.9285 27.9941C23.8267 27.9941 22.9342 26.8748 22.9342 25.4949C22.9342 24.1144 23.8267 22.9951 24.9285 22.9951C26.0298 22.9951 26.9228 24.1144 26.9228 25.4949Z" fill="#1B8BC8"/>
<path fill-rule="evenodd" clip-rule="evenodd" d="M38.8885 25.4949C38.8885 26.8748 37.9955 27.9941 36.8933 27.9941C35.792 27.9941 34.8999 26.8748 34.8999 25.4949C34.8999 24.1144 35.792 22.9951 36.8933 22.9951C37.9955 22.9951 38.8885 24.1144 38.8885 25.4949Z" fill="#1B8BC8"/>
<path fill-rule="evenodd" clip-rule="evenodd" d="M49.8571 25.4949C49.8571 26.8748 48.9648 27.9941 47.8624 27.9941C46.7613 27.9941 45.8685 26.8748 45.8685 25.4949C45.8685 24.1144 46.7613 22.9951 47.8624 22.9951C48.9648 22.9951 49.8571 24.1144 49.8571 25.4949Z" fill="#1B8BC8"/>
<path fill-rule="evenodd" clip-rule="evenodd" d="M3.98857 36.4921C3.98857 37.8726 3.09582 38.9919 1.99342 38.9919C0.892745 38.9919 0 37.8726 0 36.4921C0 35.1122 0.892745 33.9929 1.99342 33.9929C3.09582 33.9929 3.98857 35.1122 3.98857 36.4921Z" fill="#1B8BC8"/>
<path fill-rule="evenodd" clip-rule="evenodd" d="M15.9543 36.4921C15.9543 37.8726 15.0615 38.9919 13.9596 38.9919C12.8584 38.9919 11.9657 37.8726 11.9657 36.4921C11.9657 35.1122 12.8584 33.9929 13.9596 33.9929C15.0615 33.9929 15.9543 35.1122 15.9543 36.4921Z" fill="#1B8BC8"/>
<path fill-rule="evenodd" clip-rule="evenodd" d="M26.9228 36.4921C26.9228 37.8726 26.0298 38.9919 24.9285 38.9919C23.8267 38.9919 22.9342 37.8726 22.9342 36.4921C22.9342 35.1122 23.8267 33.9929 24.9285 33.9929C26.0298 33.9929 26.9228 35.1122 26.9228 36.4921Z" fill="#1B8BC8"/>
<path fill-rule="evenodd" clip-rule="evenodd" d="M38.8885 36.4921C38.8885 37.8726 37.9955 38.9919 36.8933 38.9919C35.792 38.9919 34.8999 37.8726 34.8999 36.4921C34.8999 35.1122 35.792 33.9929 36.8933 33.9929C37.9955 33.9929 38.8885 35.1122 38.8885 36.4921Z" fill="#1B8BC8"/>
<path fill-rule="evenodd" clip-rule="evenodd" d="M49.8571 36.4921C49.8571 37.8726 48.9648 38.9919 47.8624 38.9919C46.7613 38.9919 45.8685 37.8726 45.8685 36.4921C45.8685 35.1122 46.7613 33.9929 47.8624 33.9929C48.9648 33.9929 49.8571 35.1122 49.8571 36.4921Z" fill="#1B8BC8"/>
<path fill-rule="evenodd" clip-rule="evenodd" d="M3.98857 47.9901C3.98857 49.0941 3.09582 49.9896 1.99342 49.9896C0.892745 49.9896 0 49.0941 0 47.9901C0 46.8856 0.892745 45.9905 1.99342 45.9905C3.09582 45.9905 3.98857 46.8856 3.98857 47.9901Z" fill="#1B8BC8"/>
<path fill-rule="evenodd" clip-rule="evenodd" d="M15.9543 47.9901C15.9543 49.0941 15.0615 49.9896 13.9596 49.9896C12.8584 49.9896 11.9657 49.0941 11.9657 47.9901C11.9657 46.8856 12.8584 45.9905 13.9596 45.9905C15.0615 45.9905 15.9543 46.8856 15.9543 47.9901Z" fill="#1B8BC8"/>
<path fill-rule="evenodd" clip-rule="evenodd" d="M26.9228 47.9901C26.9228 49.0941 26.0298 49.9896 24.9285 49.9896C23.8267 49.9896 22.9342 49.0941 22.9342 47.9901C22.9342 46.8856 23.8267 45.9905 24.9285 45.9905C26.0298 45.9905 26.9228 46.8856 26.9228 47.9901Z" fill="#1B8BC8"/>
<path fill-rule="evenodd" clip-rule="evenodd" d="M38.8885 47.9901C38.8885 49.0941 37.9955 49.9896 36.8933 49.9896C35.792 49.9896 34.8999 49.0941 34.8999 47.9901C34.8999 46.8856 35.792 45.9905 36.8933 45.9905C37.9955 45.9905 38.8885 46.8856 38.8885 47.9901Z" fill="#1B8BC8"/>
<path fill-rule="evenodd" clip-rule="evenodd" d="M49.8571 47.9901C49.8571 49.0941 48.9648 49.9896 47.8624 49.9896C46.7613 49.9896 45.8685 49.0941 45.8685 47.9901C45.8685 46.8856 46.7613 45.9905 47.8624 45.9905C48.9648 45.9905 49.8571 46.8856 49.8571 47.9901Z" fill="#1B8BC8"/>
<path fill-rule="evenodd" clip-rule="evenodd" d="M3.98857 58.9879C3.98857 60.0923 3.09582 60.9875 1.99342 60.9875C0.892745 60.9875 0 60.0923 0 58.9879C0 57.8834 0.892745 56.9883 1.99342 56.9883C3.09582 56.9883 3.98857 57.8834 3.98857 58.9879Z" fill="#1B8BC8"/>
<path fill-rule="evenodd" clip-rule="evenodd" d="M15.9543 58.9879C15.9543 60.0923 15.0615 60.9875 13.9596 60.9875C12.8584 60.9875 11.9657 60.0923 11.9657 58.9879C11.9657 57.8834 12.8584 56.9883 13.9596 56.9883C15.0615 56.9883 15.9543 57.8834 15.9543 58.9879Z" fill="#1B8BC8"/>
<path fill-rule="evenodd" clip-rule="evenodd" d="M26.9228 58.9879C26.9228 60.0923 26.0298 60.9875 24.9285 60.9875C23.8267 60.9875 22.9342 60.0923 22.9342 58.9879C22.9342 57.8834 23.8267 56.9883 24.9285 56.9883C26.0298 56.9883 26.9228 57.8834 26.9228 58.9879Z" fill="#1B8BC8"/>
<path fill-rule="evenodd" clip-rule="evenodd" d="M38.8885 58.9879C38.8885 60.0923 37.9955 60.9875 36.8933 60.9875C35.792 60.9875 34.8999 60.0923 34.8999 58.9879C34.8999 57.8834 35.792 56.9883 36.8933 56.9883C37.9955 56.9883 38.8885 57.8834 38.8885 58.9879Z" fill="#1B8BC8"/>
<path fill-rule="evenodd" clip-rule="evenodd" d="M49.8571 58.9879C49.8571 60.0923 48.9648 60.9875 47.8624 60.9875C46.7613 60.9875 45.8685 60.0923 45.8685 58.9879C45.8685 57.8834 46.7613 56.9883 47.8624 56.9883C48.9648 56.9883 49.8571 57.8834 49.8571 58.9879Z" fill="#1B8BC8"/>
<path fill-rule="evenodd" clip-rule="evenodd" d="M61.8228 1.99959C61.8228 3.10405 60.9305 3.99917 59.8281 3.99917C58.727 3.99917 57.8342 3.10405 57.8342 1.99959C57.8342 0.895118 58.727 0 59.8281 0C60.9305 0 61.8228 0.895118 61.8228 1.99959Z" fill="#1B8BC8"/>
<path fill-rule="evenodd" clip-rule="evenodd" d="M61.8228 12.9974C61.8228 14.1019 60.9305 14.997 59.8281 14.997C58.727 14.997 57.8342 14.1019 57.8342 12.9974C57.8342 11.8934 58.727 10.9978 59.8281 10.9978C60.9305 10.9978 61.8228 11.8934 61.8228 12.9974Z" fill="#1B8BC8"/>
<path fill-rule="evenodd" clip-rule="evenodd" d="M61.8228 25.4949C61.8228 26.8748 60.9305 27.9941 59.8281 27.9941C58.727 27.9941 57.8342 26.8748 57.8342 25.4949C57.8342 24.1144 58.727 22.9951 59.8281 22.9951C60.9305 22.9951 61.8228 24.1144 61.8228 25.4949Z" fill="#1B8BC8"/>
<path fill-rule="evenodd" clip-rule="evenodd" d="M61.8228 36.4921C61.8228 37.8726 60.9305 38.9919 59.8281 38.9919C58.727 38.9919 57.8342 37.8726 57.8342 36.4921C57.8342 35.1122 58.727 33.9929 59.8281 33.9929C60.9305 33.9929 61.8228 35.1122 61.8228 36.4921Z" fill="#1B8BC8"/>
<path fill-rule="evenodd" clip-rule="evenodd" d="M61.8228 47.9901C61.8228 49.0941 60.9305 49.9896 59.8281 49.9896C58.727 49.9896 57.8342 49.0941 57.8342 47.9901C57.8342 46.8856 58.727 45.9905 59.8281 45.9905C60.9305 45.9905 61.8228 46.8856 61.8228 47.9901Z" fill="#1B8BC8"/>
<path fill-rule="evenodd" clip-rule="evenodd" d="M61.8228 58.9879C61.8228 60.0923 60.9305 60.9875 59.8281 60.9875C58.727 60.9875 57.8342 60.0923 57.8342 58.9879C57.8342 57.8834 58.727 56.9883 59.8281 56.9883C60.9305 56.9883 61.8228 57.8834 61.8228 58.9879Z" fill="#1B8BC8"/>
<path fill-rule="evenodd" clip-rule="evenodd" d="M74.1658 68.835C74.1658 69.9395 73.2731 70.8346 72.1707 70.8346C71.07 70.8346 70.1772 69.9395 70.1772 68.835C70.1772 67.7306 71.07 66.8354 72.1707 66.8354C73.2731 66.8354 74.1658 67.7306 74.1658 68.835Z" fill="#1B8BC8"/>
<path fill-rule="evenodd" clip-rule="evenodd" d="M86.1315 68.835C86.1315 69.9395 85.2388 70.8346 84.1368 70.8346C83.0357 70.8346 82.1429 69.9395 82.1429 68.835C82.1429 67.7306 83.0357 66.8354 84.1368 66.8354C85.2388 66.8354 86.1315 67.7306 86.1315 68.835Z" fill="#1B8BC8"/>
<path fill-rule="evenodd" clip-rule="evenodd" d="M97.1 68.835C97.1 69.9395 96.2071 70.8346 95.1057 70.8346C94.004 70.8346 93.1115 69.9395 93.1115 68.835C93.1115 67.7306 94.004 66.8354 95.1057 66.8354C96.2071 66.8354 97.1 67.7306 97.1 68.835Z" fill="#1B8BC8"/>
<path fill-rule="evenodd" clip-rule="evenodd" d="M109.066 68.835C109.066 69.9395 108.173 70.8346 107.071 70.8346C105.969 70.8346 105.077 69.9395 105.077 68.835C105.077 67.7306 105.969 66.8354 107.071 66.8354C108.173 66.8354 109.066 67.7306 109.066 68.835Z" fill="#1B8BC8"/>
<path fill-rule="evenodd" clip-rule="evenodd" d="M120.034 68.835C120.034 69.9395 119.142 70.8346 118.04 70.8346C116.938 70.8346 116.046 69.9395 116.046 68.835C116.046 67.7306 116.938 66.8354 118.04 66.8354C119.142 66.8354 120.034 67.7306 120.034 68.835Z" fill="#1B8BC8"/>
<path fill-rule="evenodd" clip-rule="evenodd" d="M74.1658 79.8328C74.1658 80.9373 73.2731 81.8324 72.1707 81.8324C71.07 81.8324 70.1772 80.9373 70.1772 79.8328C70.1772 78.7288 71.07 77.8333 72.1707 77.8333C73.2731 77.8333 74.1658 78.7288 74.1658 79.8328Z" fill="#1B8BC8"/>
<path fill-rule="evenodd" clip-rule="evenodd" d="M86.1315 79.8328C86.1315 80.9373 85.2388 81.8324 84.1368 81.8324C83.0357 81.8324 82.1429 80.9373 82.1429 79.8328C82.1429 78.7288 83.0357 77.8333 84.1368 77.8333C85.2388 77.8333 86.1315 78.7288 86.1315 79.8328Z" fill="#1B8BC8"/>
<path fill-rule="evenodd" clip-rule="evenodd" d="M97.1 79.8328C97.1 80.9373 96.2071 81.8324 95.1057 81.8324C94.004 81.8324 93.1115 80.9373 93.1115 79.8328C93.1115 78.7288 94.004 77.8333 95.1057 77.8333C96.2071 77.8333 97.1 78.7288 97.1 79.8328Z" fill="#1B8BC8"/>
<path fill-rule="evenodd" clip-rule="evenodd" d="M109.066 79.8328C109.066 80.9373 108.173 81.8324 107.071 81.8324C105.969 81.8324 105.077 80.9373 105.077 79.8328C105.077 78.7288 105.969 77.8333 107.071 77.8333C108.173 77.8333 109.066 78.7288 109.066 79.8328Z" fill="#1B8BC8"/>
<path fill-rule="evenodd" clip-rule="evenodd" d="M120.034 79.8328C120.034 80.9373 119.142 81.8324 118.04 81.8324C116.938 81.8324 116.046 80.9373 116.046 79.8328C116.046 78.7288 116.938 77.8333 118.04 77.8333C119.142 77.8333 120.034 78.7288 120.034 79.8328Z" fill="#1B8BC8"/>
<path fill-rule="evenodd" clip-rule="evenodd" d="M74.1658 92.3303C74.1658 93.7102 73.2731 94.8295 72.1707 94.8295C71.07 94.8295 70.1772 93.7102 70.1772 92.3303C70.1772 90.9499 71.07 89.8306 72.1707 89.8306C73.2731 89.8306 74.1658 90.9499 74.1658 92.3303Z" fill="#1B8BC8"/>
<path fill-rule="evenodd" clip-rule="evenodd" d="M86.1315 92.3303C86.1315 93.7102 85.2388 94.8295 84.1368 94.8295C83.0357 94.8295 82.1429 93.7102 82.1429 92.3303C82.1429 90.9499 83.0357 89.8306 84.1368 89.8306C85.2388 89.8306 86.1315 90.9499 86.1315 92.3303Z" fill="#1B8BC8"/>
<path fill-rule="evenodd" clip-rule="evenodd" d="M97.1 92.3303C97.1 93.7102 96.2071 94.8295 95.1057 94.8295C94.004 94.8295 93.1115 93.7102 93.1115 92.3303C93.1115 90.9499 94.004 89.8306 95.1057 89.8306C96.2071 89.8306 97.1 90.9499 97.1 92.3303Z" fill="#1B8BC8"/>
<path fill-rule="evenodd" clip-rule="evenodd" d="M109.066 92.3303C109.066 93.7102 108.173 94.8295 107.071 94.8295C105.969 94.8295 105.077 93.7102 105.077 92.3303C105.077 90.9499 105.969 89.8306 107.071 89.8306C108.173 89.8306 109.066 90.9499 109.066 92.3303Z" fill="#1B8BC8"/>
<path fill-rule="evenodd" clip-rule="evenodd" d="M120.034 92.3303C120.034 93.7102 119.142 94.8295 118.04 94.8295C116.938 94.8295 116.046 93.7102 116.046 92.3303C116.046 90.9499 116.938 89.8306 118.04 89.8306C119.142 89.8306 120.034 90.9499 120.034 92.3303Z" fill="#1B8BC8"/>
<path fill-rule="evenodd" clip-rule="evenodd" d="M74.1658 103.328C74.1658 104.708 73.2731 105.827 72.1707 105.827C71.07 105.827 70.1772 104.708 70.1772 103.328C70.1772 101.948 71.07 100.828 72.1707 100.828C73.2731 100.828 74.1658 101.948 74.1658 103.328Z" fill="#1B8BC8"/>
<path fill-rule="evenodd" clip-rule="evenodd" d="M86.1315 103.328C86.1315 104.708 85.2388 105.827 84.1368 105.827C83.0357 105.827 82.1429 104.708 82.1429 103.328C82.1429 101.948 83.0357 100.828 84.1368 100.828C85.2388 100.828 86.1315 101.948 86.1315 103.328Z" fill="#1B8BC8"/>
<path fill-rule="evenodd" clip-rule="evenodd" d="M97.1 103.328C97.1 104.708 96.2071 105.827 95.1057 105.827C94.004 105.827 93.1115 104.708 93.1115 103.328C93.1115 101.948 94.004 100.828 95.1057 100.828C96.2071 100.828 97.1 101.948 97.1 103.328Z" fill="#1B8BC8"/>
<path fill-rule="evenodd" clip-rule="evenodd" d="M109.066 103.328C109.066 104.708 108.173 105.827 107.071 105.827C105.969 105.827 105.077 104.708 105.077 103.328C105.077 101.948 105.969 100.828 107.071 100.828C108.173 100.828 109.066 101.948 109.066 103.328Z" fill="#1B8BC8"/>
<path fill-rule="evenodd" clip-rule="evenodd" d="M120.034 103.328C120.034 104.708 119.142 105.827 118.04 105.827C116.938 105.827 116.046 104.708 116.046 103.328C116.046 101.948 116.938 100.828 118.04 100.828C119.142 100.828 120.034 101.948 120.034 103.328Z" fill="#1B8BC8"/>
<path fill-rule="evenodd" clip-rule="evenodd" d="M74.1658 114.826C74.1658 115.93 73.2731 116.825 72.1707 116.825C71.07 116.825 70.1772 115.93 70.1772 114.826C70.1772 113.721 71.07 112.826 72.1707 112.826C73.2731 112.826 74.1658 113.721 74.1658 114.826Z" fill="#1B8BC8"/>
<path fill-rule="evenodd" clip-rule="evenodd" d="M86.1315 114.826C86.1315 115.93 85.2388 116.825 84.1368 116.825C83.0357 116.825 82.1429 115.93 82.1429 114.826C82.1429 113.721 83.0357 112.826 84.1368 112.826C85.2388 112.826 86.1315 113.721 86.1315 114.826Z" fill="#1B8BC8"/>
<path fill-rule="evenodd" clip-rule="evenodd" d="M97.1 114.826C97.1 115.93 96.2071 116.825 95.1057 116.825C94.004 116.825 93.1115 115.93 93.1115 114.826C93.1115 113.721 94.004 112.826 95.1057 112.826C96.2071 112.826 97.1 113.721 97.1 114.826Z" fill="#1B8BC8"/>
<path fill-rule="evenodd" clip-rule="evenodd" d="M109.066 114.826C109.066 115.93 108.173 116.825 107.071 116.825C105.969 116.825 105.077 115.93 105.077 114.826C105.077 113.721 105.969 112.826 107.071 112.826C108.173 112.826 109.066 113.721 109.066 114.826Z" fill="#1B8BC8"/>
<path fill-rule="evenodd" clip-rule="evenodd" d="M120.034 114.826C120.034 115.93 119.142 116.825 118.04 116.825C116.938 116.825 116.046 115.93 116.046 114.826C116.046 113.721 116.938 112.826 118.04 112.826C119.142 112.826 120.034 113.721 120.034 114.826Z" fill="#1B8BC8"/>
<path fill-rule="evenodd" clip-rule="evenodd" d="M74.1658 125.823C74.1658 126.928 73.2731 127.823 72.1707 127.823C71.07 127.823 70.1772 126.928 70.1772 125.823C70.1772 124.719 71.07 123.824 72.1707 123.824C73.2731 123.824 74.1658 124.719 74.1658 125.823Z" fill="#1B8BC8"/>
<path fill-rule="evenodd" clip-rule="evenodd" d="M86.1315 125.823C86.1315 126.928 85.2388 127.823 84.1368 127.823C83.0357 127.823 82.1429 126.928 82.1429 125.823C82.1429 124.719 83.0357 123.824 84.1368 123.824C85.2388 123.824 86.1315 124.719 86.1315 125.823Z" fill="#1B8BC8"/>
<path fill-rule="evenodd" clip-rule="evenodd" d="M97.1 125.823C97.1 126.928 96.2071 127.823 95.1057 127.823C94.004 127.823 93.1115 126.928 93.1115 125.823C93.1115 124.719 94.004 123.824 95.1057 123.824C96.2071 123.824 97.1 124.719 97.1 125.823Z" fill="#1B8BC8"/>
<path fill-rule="evenodd" clip-rule="evenodd" d="M109.066 125.823C109.066 126.928 108.173 127.823 107.071 127.823C105.969 127.823 105.077 126.928 105.077 125.823C105.077 124.719 105.969 123.824 107.071 123.824C108.173 123.824 109.066 124.719 109.066 125.823Z" fill="#1B8BC8"/>
<path fill-rule="evenodd" clip-rule="evenodd" d="M120.034 125.823C120.034 126.928 119.142 127.823 118.04 127.823C116.938 127.823 116.046 126.928 116.046 125.823C116.046 124.719 116.938 123.824 118.04 123.824C119.142 123.824 120.034 124.719 120.034 125.823Z" fill="#1B8BC8"/>
<path fill-rule="evenodd" clip-rule="evenodd" d="M132 68.835C132 69.9395 131.108 70.8346 130.005 70.8346C128.904 70.8346 128.011 69.9395 128.011 68.835C128.011 67.7306 128.904 66.8354 130.005 66.8354C131.108 66.8354 132 67.7306 132 68.835Z" fill="#1B8BC8"/>
<path fill-rule="evenodd" clip-rule="evenodd" d="M132 79.8328C132 80.9373 131.108 81.8324 130.005 81.8324C128.904 81.8324 128.011 80.9373 128.011 79.8328C128.011 78.7288 128.904 77.8333 130.005 77.8333C131.108 77.8333 132 78.7288 132 79.8328Z" fill="#1B8BC8"/>
<path fill-rule="evenodd" clip-rule="evenodd" d="M132 92.3303C132 93.7102 131.108 94.8295 130.005 94.8295C128.904 94.8295 128.011 93.7102 128.011 92.3303C128.011 90.9499 128.904 89.8306 130.005 89.8306C131.108 89.8306 132 90.9499 132 92.3303Z" fill="#1B8BC8"/>
<path fill-rule="evenodd" clip-rule="evenodd" d="M132 103.328C132 104.708 131.108 105.827 130.005 105.827C128.904 105.827 128.011 104.708 128.011 103.328C128.011 101.948 128.904 100.828 130.005 100.828C131.108 100.828 132 101.948 132 103.328Z" fill="#1B8BC8"/>
<path fill-rule="evenodd" clip-rule="evenodd" d="M132 114.826C132 115.93 131.108 116.825 130.005 116.825C128.904 116.825 128.011 115.93 128.011 114.826C128.011 113.721 128.904 112.826 130.005 112.826C131.108 112.826 132 113.721 132 114.826Z" fill="#1B8BC8"/>
<path fill-rule="evenodd" clip-rule="evenodd" d="M132 125.823C132 126.928 131.108 127.823 130.005 127.823C128.904 127.823 128.011 126.928 128.011 125.823C128.011 124.719 128.904 123.824 130.005 123.824C131.108 123.824 132 124.719 132 125.823Z" fill="#1B8BC8"/>
</svg>
