<svg width="24" height="24" viewBox="0 0 24 24" fill="none" xmlns="http://www.w3.org/2000/svg">
<path d="M17.9992 0.0049936L14.8869 0C11.3904 0 9.13082 2.31828 9.13082 5.90643V8.62969H6.00158C5.73118 8.62969 5.51221 8.84891 5.51221 9.11932V13.065C5.51221 13.3354 5.73143 13.5544 6.00158 13.5544H9.13082V23.5106C9.13082 23.781 9.34979 24 9.62019 24H13.703C13.9734 24 14.1923 23.7808 14.1923 23.5106V13.5544H17.8512C18.1216 13.5544 18.3405 13.3354 18.3405 13.065L18.342 9.11932C18.342 8.98948 18.2903 8.86514 18.1987 8.77326C18.1071 8.68138 17.9822 8.62969 17.8524 8.62969H14.1923V6.32115C14.1923 5.21157 14.4567 4.64829 15.9021 4.64829L17.9987 4.64755C18.2689 4.64755 18.4878 4.42833 18.4878 4.15817V0.494367C18.4878 0.224462 18.2691 0.00549296 17.9992 0.0049936Z" fill="white"/>
</svg>
