<svg width="31" height="31" viewBox="0 0 31 31" fill="none" xmlns="http://www.w3.org/2000/svg">
<g clip-path="url(#clip0)">
<path d="M9.94324 10.3535H21.0467V22.9865H9.94324V10.3535Z" fill="#2F5BEA"/>
<path d="M25.2656 7.07137C25.577 6.71677 25.7484 6.26105 25.7484 5.78947V1.93568C25.7499 0.869909 24.8885 0.00390751 23.8228 0H21.9721C20.9063 0.00390751 20.0449 0.869909 20.0464 1.93568V4.14538H18.3459V1.93568C18.3476 0.869909 17.486 0.00390751 16.4202 0H14.5698C13.504 0.00390751 12.6424 0.869909 12.6441 1.93568V4.14538H10.9436V1.93568C10.9453 0.869909 10.0837 0.00390751 9.01794 0H7.16725C6.10148 0.00390751 5.24011 0.869909 5.24182 1.93568V5.78678C5.24158 6.25861 5.41302 6.71432 5.7244 7.06869L8.94297 10.732V15.6696H10.9436V11.3538H20.0464V21.9841H10.9436V17.6693H8.94297V22.6074L5.24182 26.8172V31H21.7471V28.9993H7.24247V27.5704L10.3958 23.9838H20.5966L23.7478 27.5704V31H25.7484V26.8168L22.047 22.6074V10.732L25.2656 7.07137ZM20.5966 9.35312H10.3934L7.24247 5.78776V2.00065H8.94297V4.20985C8.94126 5.27563 9.80262 6.14163 10.8686 6.14554H12.7191C13.7849 6.14163 14.6465 5.27563 14.6448 4.20985V2.00065H16.3453V4.20985C16.3435 5.27563 17.2052 6.14163 18.2709 6.14554H20.1216C21.1874 6.14163 22.0488 5.27563 22.047 4.20985V2.00065H23.7478L23.7627 5.75186L20.5966 9.35312Z" fill="white"/>
</g>
<defs>
<clipPath id="clip0">
<rect width="31" height="31" fill="white"/>
</clipPath>
</defs>
</svg>
