<svg width="32" height="32" viewBox="0 0 32 32" fill="none" xmlns="http://www.w3.org/2000/svg">
<g clip-path="url(#clip0)">
<path d="M6.02181 16.2371V4.97893C6.02181 3.60093 4.90489 2.48401 3.52689 2.48401C2.14914 2.48401 1.03222 3.60118 1.03247 4.97893V17.7272L5.94847 22.6432V26.3226H10.9378V14.2971C10.9376 12.9395 9.83702 11.8389 8.47968 11.8387C7.12209 11.8389 6.02181 12.9395 6.02181 14.2971" fill="#4370FF"/>
<path d="M25.9781 16.2371V4.97893C25.9781 3.60093 27.095 2.48401 28.473 2.48401C29.8508 2.48426 30.9675 3.60118 30.9675 4.97893V17.7272L26.0515 22.6432V26.3226H21.0621V14.2971C21.0624 12.9395 22.1629 11.8389 23.5203 11.8387C24.8778 11.8389 25.9781 12.9395 25.9781 14.2971" fill="#4370FF"/>
<path d="M16.0001 6.0906C15.2708 6.08128 14.6861 5.48401 14.6924 4.75469C14.6984 4.02511 15.2932 3.43793 16.0228 3.44095C16.7521 3.44423 17.342 4.03645 17.342 4.76578H19.4065C19.402 3.28773 18.4418 1.9823 17.0323 1.5375V0.516602H14.9678V1.5375C13.3696 2.03976 12.3789 3.63525 12.637 5.29047C12.8953 6.94568 14.3247 8.1634 16.0001 8.15509C16.7297 8.16466 17.3143 8.76193 17.3078 9.49151C17.3015 10.2211 16.7067 10.808 15.9771 10.8047C15.2476 10.8015 14.6579 10.209 14.6581 9.47966H12.5936C12.5977 10.9582 13.5578 12.2641 14.9678 12.7089V13.7185H17.0323V12.7089C18.6313 12.2072 19.623 10.6114 19.3649 8.95548C19.1066 7.29951 17.676 6.08153 16.0001 6.0906V6.0906Z" fill="black"/>
<path d="M6.98074 25.2905V22.2129L2.06474 17.2969V4.97906C2.05491 4.45008 2.33137 3.9569 2.78802 3.68951C3.24441 3.42213 3.80993 3.42213 4.26632 3.68951C4.72297 3.9569 4.99942 4.45008 4.98959 4.97906V16.2372H7.05408V14.2972C7.05408 13.5099 7.69242 12.8716 8.47971 12.8716C9.26699 12.8716 9.90509 13.5099 9.90509 14.2972V23.226H11.9696V14.2972C11.9696 13.1143 11.3703 12.0117 10.3776 11.3683C9.38494 10.7249 8.13395 10.6282 7.05408 11.111V4.97906C7.06945 3.70892 6.40061 2.52849 5.3031 1.88888C4.20558 1.24928 2.84875 1.24928 1.75124 1.88888C0.653727 2.52849 -0.0151133 3.70892 0.000259407 4.97906V18.152L4.91626 23.068V25.2905H3.35504V27.355H11.4648V29.4194H3.35504V31.4839H13.5293V25.2905H6.98074Z" fill="black"/>
<path d="M31.9997 18.152V4.97906C32.0151 3.70892 31.3463 2.52849 30.2487 1.88888C29.1512 1.24928 27.7944 1.24928 26.6969 1.88888C25.5994 2.52849 24.9305 3.70892 24.9459 4.97906V11.111C23.866 10.6282 22.615 10.7249 21.6224 11.3683C20.6297 12.0117 20.0304 13.1143 20.0304 14.2972V23.226H22.0949V14.2972C22.0949 13.5099 22.733 12.8716 23.5203 12.8716C24.3076 12.8716 24.9459 13.5099 24.9459 14.2972V16.2372H27.0104V4.97906C27.0006 4.45008 27.277 3.9569 27.7337 3.68951C28.1901 3.42213 28.7556 3.42213 29.212 3.68951C29.6686 3.9569 29.9451 4.45008 29.9352 4.97906V17.2969L25.0192 22.2129V25.2905H18.4707V31.4839H28.6449V29.4194H20.5352V27.355H28.6449V25.2905H27.0837V23.068L31.9997 18.152Z" fill="black"/>
</g>
<defs>
<clipPath id="clip0">
<rect width="32" height="32" fill="white"/>
</clipPath>
</defs>
</svg>
