<svg width="32" height="32" viewBox="0 0 32 32" fill="none" xmlns="http://www.w3.org/2000/svg">
<g clip-path="url(#clip0)">
<path d="M15.4838 5.20264L1.03223 11.2878V12.3256L15.4838 17.997H16.5161L30.9677 12.3256V11.2878L16.5161 5.20264H15.4838Z" fill="#4370FF"/>
<path d="M16.7225 4.12903H15.2775L0 10.5832V26.9181H2.06452V13.8322L4.82838 14.9209V24.3521C5.08745 24.4763 9.02394 27.871 16 27.871C18.4052 27.8775 20.7918 27.4468 23.0431 26.6003V24.3689C17.9622 26.6195 11.5277 26.2497 6.89289 23.2588V15.7336L15.2888 19.0401H16.7112L25.1076 15.7331V25.6429C25.8256 25.2621 26.5154 24.8309 27.1721 24.3526V14.9204L32 13.0194V10.5832L16.7225 4.12903ZM16.3191 16.9682H15.6789L2.49597 11.7765L15.6903 6.20085H16.3097L29.506 11.7749L16.3191 16.9682Z" fill="black"/>
</g>
<defs>
<clipPath id="clip0">
<rect width="32" height="32" fill="white"/>
</clipPath>
</defs>
</svg>
