<svg width="32" height="32" viewBox="0 0 32 32" fill="none" xmlns="http://www.w3.org/2000/svg">
<g clip-path="url(#clip0)">
<path d="M24.8015 11.0748C24.801 8.13681 22.7059 5.61649 19.8174 5.07977C16.9288 4.54306 14.0681 6.14227 13.0124 8.88394C11.9564 11.6259 13.0059 14.7306 15.5085 16.2696V18.0709H21.8978V16.2696C23.703 15.1605 24.8023 13.1933 24.8015 11.0748Z" fill="#4370FF"/>
<path d="M22.0067 14.8694H24.7853C26.8429 11.5735 25.8994 7.23813 22.6585 5.09516C19.4176 2.95193 15.059 3.78136 12.832 6.96521C10.6046 10.1491 11.3195 14.5275 14.4439 16.8373V21.0775C14.4437 21.6665 14.9213 22.1444 15.5106 22.1441H16.1452V23.0134C16.1471 23.6019 16.6236 24.0785 17.2119 24.0801H17.6385V29.8668H13.7986L14.8866 24.704C14.959 24.3587 14.8562 23.9996 14.6119 23.7446C14.3679 23.49 14.0135 23.372 13.6653 23.4295L8.27336 24.3415C8.01737 24.3845 7.75539 24.3126 7.55721 24.1452C7.35878 23.9777 7.24445 23.7316 7.24393 23.4722V21.9574H5.1106V23.4722C5.1093 24.3595 5.4994 25.2019 6.17701 25.7749C6.85461 26.3475 7.7507 26.592 8.62518 26.4428L12.476 25.7975L11.4413 30.7147C11.3747 31.0288 11.4533 31.3558 11.6551 31.6053C11.857 31.8545 12.1603 31.9996 12.4812 32.0001H19.7718V24.0801H20.1931C20.7825 24.0801 21.2598 23.6025 21.2598 23.0134V22.1441H21.8999C22.4882 22.1423 22.9648 21.6657 22.9666 21.0775V17.0027H16.5773V16.2722C16.5773 15.9009 16.3856 15.5561 16.0705 15.36C14.2184 14.2215 13.3075 12.0217 13.8122 9.90714C14.3171 7.7923 16.1236 6.24126 18.2903 6.06235C20.457 5.88318 22.4937 7.11652 23.339 9.11964C24.184 11.1228 23.6468 13.4423 22.0067 14.8694ZM16.5773 19.136H20.8333V20.0108H16.5773V19.136Z" fill="white"/>
<path d="M17.5027 6.95148e-06H17.4777C10.8993 -0.00676385 5.36751 4.93334 4.6334 11.4706L1.68626 18.3352C1.54512 18.6648 1.57897 19.0432 1.77611 19.3427C1.9735 19.6422 2.30788 19.8224 2.66647 19.8227H7.24355V18.756C7.24355 18.1669 6.76595 17.6893 6.17689 17.6893H4.28522L6.65684 12.1649C6.6998 12.0651 6.72715 11.9594 6.73835 11.8513C7.28678 6.331 11.9342 2.12709 17.4818 2.13334H17.5027C22.399 2.1336 26.6852 5.42188 27.9537 10.1513C29.2222 14.8807 27.1568 19.8727 22.9178 22.3232C22.5459 22.5385 22.3396 22.9563 22.3951 23.3823L23.2292 29.8667H21.9029V32H24.4423C24.7488 32 25.0404 31.868 25.243 31.6378C25.4454 31.4076 25.5391 31.1013 25.5001 30.7971L24.5982 23.7919C28.2626 21.3828 30.4652 17.2885 30.4563 12.9034C30.418 5.77344 24.6326 0.0104236 17.5027 6.95148e-06Z" fill="white"/>
</g>
<defs>
<clipPath id="clip0">
<rect width="32" height="32" fill="white"/>
</clipPath>
</defs>
</svg>
