<svg width="32" height="32" viewBox="0 0 32 32" fill="none" xmlns="http://www.w3.org/2000/svg">
<path d="M21.1164 3.39966V5.7671H10.8835V3.39966H5.93542V30.9677H26.0645V3.39966H21.1164Z" fill="#2F5BEA"/>
<path d="M21.1638 12.8558L19.7041 11.3961L14.5043 16.5955L12.2959 14.387L10.8362 15.8467L14.5043 19.5153L21.1638 12.8558Z" fill="black"/>
<path d="M14.5043 26.0912L21.1638 19.4317L19.7041 17.972L14.5043 23.1721L12.2959 20.9637L10.8362 22.4232L14.5043 26.0912Z" fill="black"/>
<path d="M22.1487 2.36744V0H9.85128V6.79939H22.1487V4.43196H25.0322V29.9355H6.96771V4.43196H7.78677V2.36744H4.9032V32H27.0967V2.36744H22.1487ZM20.0841 4.73488H11.9158V2.06452H20.0841V4.73488Z" fill="black"/>
</svg>
