<svg width="39" height="39" viewBox="0 0 39 39" fill="none" xmlns="http://www.w3.org/2000/svg">
<g clip-path="url(#clip0)">
<path d="M20.0925 4.40332H18.8344L1.25806 16.6255V17.2546H6.3929V34.5969H11.4485V25.0502C11.4485 23.5215 12.6875 22.2822 14.2162 22.2822C15.7448 22.2822 16.9839 23.5215 16.9839 25.0502V34.5969H22.0161V25.0502C22.0161 23.5215 23.2551 22.2822 24.7838 22.2822C26.3125 22.2822 27.5515 23.5215 27.5515 25.0502V34.5969H32.6071V17.2539H37.7419V16.6249L20.0925 4.40332ZM19.5 13.9377C18.284 13.9377 17.2984 12.9518 17.2984 11.7361C17.2984 10.5201 18.284 9.53448 19.5 9.53448C20.716 9.53448 21.7016 10.5201 21.7016 11.7361C21.7016 12.9518 20.716 13.9377 19.5 13.9377Z" fill="#2F5BEA"/>
<path d="M33.8652 30.8227V18.512H39V15.9667L20.4856 3.14526H18.44L0 15.9679V18.512H5.13484V33.3388H2.36133V35.8549H36.6387V33.3388H28.8096V25.0502C28.8096 22.8268 27.0072 21.0242 24.7838 21.0242C22.5604 21.0242 20.7581 22.8268 20.7581 25.0502V33.3388H18.2419V25.0502C18.2419 22.8268 16.4396 21.0242 14.2162 21.0242C11.9928 21.0242 10.1904 22.8268 10.1904 25.0502V33.3388H7.65097V15.9959H4.36729L19.2288 5.66139H19.6993L34.6226 15.9959H10.1671V18.512H31.349V30.8227H33.8652ZM23.2742 25.0502C23.2742 24.2163 23.9502 23.5403 24.7838 23.5403C25.6177 23.5403 26.2934 24.2163 26.2934 25.0502V33.3388H23.2742V25.0502ZM12.7066 25.0502C12.7066 24.2163 13.3823 23.5403 14.2162 23.5403C15.0498 23.5403 15.7258 24.2163 15.7258 25.0502V33.3388H12.7066V25.0502Z" fill="white"/>
</g>
<defs>
<clipPath id="clip0">
<rect width="39" height="39" fill="white"/>
</clipPath>
</defs>
</svg>
