<svg width="32" height="32" viewBox="0 0 32 32" fill="none" xmlns="http://www.w3.org/2000/svg">
<g clip-path="url(#clip0)">
<path d="M13.9841 10.2739L14.4236 10.7137V29.9355H8.51557V15.7414L13.9841 10.2739Z" fill="#2F5BEA"/>
<path d="M26.2399 29.9355H20.3319V11.9778L26.2399 6.06958V29.9355Z" fill="#2F5BEA"/>
<path d="M5.58039 24.2724H9.53674e-07V18.6925H2.06452V20.7485C12.9032 9.90975 3.12929 19.6537 13.9846 8.83087C16.3072 11.1174 15.4365 10.2762 18.0103 12.8397L25.5101 5.33994C25.8054 5.04483 26.2492 4.95637 26.6351 5.11615C27.0207 5.27593 27.2722 5.65219 27.2722 6.06952V26.8387H25.2077V8.5786L21.3642 12.4221V28.9032H29.9355V1.03223H32V30.9677H1.03226V28.9032H7.48387V18.2502L3.5252 22.2079H5.58039V24.2724ZM9.54839 28.9032H19.2996V14.4866L18.0093 15.7769L15.4554 13.2233V26.8387H13.3909V12.3437L9.54839 16.1862V28.9032Z" fill="black"/>
</g>
<defs>
<clipPath id="clip0">
<rect width="32" height="32" fill="white" transform="matrix(-1 0 0 1 32 0)"/>
</clipPath>
</defs>
</svg>
