<svg width="31" height="31" viewBox="0 0 31 31" fill="none" xmlns="http://www.w3.org/2000/svg">
<path d="M24.8396 13.3291H17.7109V6.94556L20.1785 6.95361L15.9976 2H15L10.825 6.94556H13.283V13.3291H6.1604C6.13965 16.1582 3.8291 18.4348 1 18.4141V23.9141C3.82959 23.8933 6.14014 26.1704 6.1604 29H24.8396C24.8604 26.1709 27.1709 23.8943 30 23.915V18.415C27.1704 18.4358 24.8599 16.1587 24.8396 13.3291ZM15.5 24.647C13.5789 24.6375 12.0286 23.074 12.0349 21.1528C12.0415 19.2319 13.6023 17.679 15.5232 17.6821C17.4443 17.6853 19 19.2434 19 21.1646C18.9956 23.0928 17.4282 24.6523 15.5 24.647Z" fill="#2F5BEA"/>
<path d="M18.7104 12.3291V7.94995L22.3364 7.96191L16.4624 1H14.533L8.66895 7.94556H12.2805V10.3291H14.2805V5.94556H12.9756L15.4619 3H15.533L18.0195 5.94653L16.71 5.94238V12.3291H0V30H31V12.3291H18.7104ZM2 14.3291H5.03394C4.64502 15.8003 3.47974 16.9392 2 17.2944V14.3291ZM2 28V25.0344C3.47974 25.3901 4.64478 26.5288 5.03394 28H2ZM29 28H25.9661C26.3552 26.5288 27.5205 25.3901 29 25.0344V28ZM29 23.0024C26.4167 23.4155 24.3804 25.4229 23.9304 28H7.06958C6.61963 25.4229 4.58325 23.4155 2 23.0024V19.3264C4.58325 18.9136 6.61963 16.9062 7.06958 14.3291H23.9304C24.3804 16.906 26.4167 18.9133 29 19.3264V23.0024ZM29 17.2944C27.5203 16.939 26.3552 15.8 25.9661 14.3291H29V17.2944Z" fill="white"/>
</svg>
