<svg width="158" height="203" viewBox="0 0 158 203" fill="none" xmlns="http://www.w3.org/2000/svg">
<path fill-rule="evenodd" clip-rule="evenodd" d="M102.8 3.9468C99.1886 7.57066 95.212 7.32229 92.0167 7.1228C89.1691 6.94445 86.9198 6.80374 84.7784 8.95257C82.6377 11.1007 82.7773 13.3579 82.955 16.2155C83.1538 19.4219 83.402 23.4123 79.7907 27.0362C76.1795 30.6601 72.2036 30.411 69.0083 30.2109C66.1607 30.0325 63.9114 29.8925 61.7713 32.04C59.6306 34.1882 59.7709 36.4446 59.9486 39.3023C60.148 42.5086 60.3962 46.4985 56.7856 50.1217C53.175 53.7449 49.1984 53.4965 46.0032 53.2963C43.1562 53.118 40.9069 52.9773 38.7669 55.1255C37.8664 56.0284 36.4083 56.0284 35.5084 55.1255C34.6086 54.2225 34.6086 52.7586 35.5084 51.8556C39.119 48.2324 43.095 48.4808 46.2902 48.681C49.1379 48.8593 51.3865 49 53.5272 46.8519C55.6679 44.7044 55.5277 42.4479 55.3499 39.5903C55.1505 36.3839 54.9023 32.3941 58.5129 28.7709C62.1242 25.147 66.1001 25.396 69.2953 25.5962C72.143 25.7745 74.3916 25.9146 76.5323 23.7664C78.6737 21.6176 78.5334 19.3604 78.3564 16.5028C78.1569 13.2964 77.9094 9.30663 81.52 5.68276C85.1313 2.05956 89.1079 2.30793 92.3031 2.50742C95.1507 2.68512 97.4 2.82582 99.5414 0.676997C100.441 -0.225335 101.9 -0.225996 102.8 0.676997C103.7 1.57999 103.7 3.0438 102.8 3.9468Z" fill="#FC5C42"/>
<rect x="104.281" y="149.19" width="53.7192" height="53.8097" rx="25.5" fill="#2F5BEA"/>
<path fill-rule="evenodd" clip-rule="evenodd" d="M30.6322 123.601L40.3923 161.979L2.99996 151.955L30.6322 123.601Z" stroke="#F8BF1C" stroke-width="3"/>
</svg>
