<svg width="509" height="605" viewBox="0 0 509 605" fill="none" xmlns="http://www.w3.org/2000/svg">
<path fill-rule="evenodd" clip-rule="evenodd" d="M6.4361 401.227C6.4361 403.009 4.99553 404.453 3.21666 404.453C1.44057 404.453 0 403.009 0 401.227C0 399.444 1.44057 398 3.21666 398C4.99553 398 6.4361 399.444 6.4361 401.227Z" fill="#1B8BC8"/>
<path fill-rule="evenodd" clip-rule="evenodd" d="M25.7444 401.227C25.7444 403.009 24.3039 404.453 22.5257 404.453C20.7489 404.453 19.3083 403.009 19.3083 401.227C19.3083 399.444 20.7489 398 22.5257 398C24.3039 398 25.7444 399.444 25.7444 401.227Z" fill="#1B8BC8"/>
<path fill-rule="evenodd" clip-rule="evenodd" d="M43.4437 401.227C43.4437 403.009 42.0029 404.453 40.2257 404.453C38.4478 404.453 37.0076 403.009 37.0076 401.227C37.0076 399.444 38.4478 398 40.2257 398C42.0029 398 43.4437 399.444 43.4437 401.227Z" fill="#1B8BC8"/>
<path fill-rule="evenodd" clip-rule="evenodd" d="M62.7519 401.227C62.7519 403.009 61.311 404.453 59.5325 404.453C57.7553 404.453 56.3158 403.009 56.3158 401.227C56.3158 399.444 57.7553 398 59.5325 398C61.311 398 62.7519 399.444 62.7519 401.227Z" fill="#1B8BC8"/>
<path fill-rule="evenodd" clip-rule="evenodd" d="M80.4512 401.227C80.4512 403.009 79.0113 404.453 77.2324 404.453C75.4556 404.453 74.0151 403.009 74.0151 401.227C74.0151 399.444 75.4556 398 77.2324 398C79.0113 398 80.4512 399.444 80.4512 401.227Z" fill="#1B8BC8"/>
<path fill-rule="evenodd" clip-rule="evenodd" d="M6.4361 418.973C6.4361 420.755 4.99553 422.2 3.21666 422.2C1.44057 422.2 0 420.755 0 418.973C0 417.191 1.44057 415.746 3.21666 415.746C4.99553 415.746 6.4361 417.191 6.4361 418.973Z" fill="#1B8BC8"/>
<path fill-rule="evenodd" clip-rule="evenodd" d="M25.7444 418.973C25.7444 420.755 24.3039 422.2 22.5257 422.2C20.7489 422.2 19.3083 420.755 19.3083 418.973C19.3083 417.191 20.7489 415.746 22.5257 415.746C24.3039 415.746 25.7444 417.191 25.7444 418.973Z" fill="#1B8BC8"/>
<path fill-rule="evenodd" clip-rule="evenodd" d="M43.4437 418.973C43.4437 420.755 42.0029 422.2 40.2257 422.2C38.4478 422.2 37.0076 420.755 37.0076 418.973C37.0076 417.191 38.4478 415.746 40.2257 415.746C42.0029 415.746 43.4437 417.191 43.4437 418.973Z" fill="#1B8BC8"/>
<path fill-rule="evenodd" clip-rule="evenodd" d="M62.7519 418.973C62.7519 420.755 61.311 422.2 59.5325 422.2C57.7553 422.2 56.3158 420.755 56.3158 418.973C56.3158 417.191 57.7553 415.746 59.5325 415.746C61.311 415.746 62.7519 417.191 62.7519 418.973Z" fill="#1B8BC8"/>
<path fill-rule="evenodd" clip-rule="evenodd" d="M80.4512 418.973C80.4512 420.755 79.0113 422.2 77.2324 422.2C75.4556 422.2 74.0151 420.755 74.0151 418.973C74.0151 417.191 75.4556 415.746 77.2324 415.746C79.0113 415.746 80.4512 417.191 80.4512 418.973Z" fill="#1B8BC8"/>
<path fill-rule="evenodd" clip-rule="evenodd" d="M6.4361 439.14C6.4361 441.366 4.99553 443.172 3.21666 443.172C1.44057 443.172 0 441.366 0 439.14C0 436.912 1.44057 435.106 3.21666 435.106C4.99553 435.106 6.4361 436.912 6.4361 439.14Z" fill="#1B8BC8"/>
<path fill-rule="evenodd" clip-rule="evenodd" d="M25.7444 439.14C25.7444 441.366 24.3039 443.172 22.5257 443.172C20.7489 443.172 19.3083 441.366 19.3083 439.14C19.3083 436.912 20.7489 435.106 22.5257 435.106C24.3039 435.106 25.7444 436.912 25.7444 439.14Z" fill="#1B8BC8"/>
<path fill-rule="evenodd" clip-rule="evenodd" d="M43.4437 439.14C43.4437 441.366 42.0029 443.172 40.2257 443.172C38.4478 443.172 37.0076 441.366 37.0076 439.14C37.0076 436.912 38.4478 435.106 40.2257 435.106C42.0029 435.106 43.4437 436.912 43.4437 439.14Z" fill="#1B8BC8"/>
<path fill-rule="evenodd" clip-rule="evenodd" d="M62.7519 439.14C62.7519 441.366 61.311 443.172 59.5325 443.172C57.7553 443.172 56.3158 441.366 56.3158 439.14C56.3158 436.912 57.7553 435.106 59.5325 435.106C61.311 435.106 62.7519 436.912 62.7519 439.14Z" fill="#1B8BC8"/>
<path fill-rule="evenodd" clip-rule="evenodd" d="M80.4512 439.14C80.4512 441.366 79.0113 443.172 77.2324 443.172C75.4556 443.172 74.0151 441.366 74.0151 439.14C74.0151 436.912 75.4556 435.106 77.2324 435.106C79.0113 435.106 80.4512 436.912 80.4512 439.14Z" fill="#1B8BC8"/>
<path fill-rule="evenodd" clip-rule="evenodd" d="M6.4361 456.885C6.4361 459.113 4.99553 460.919 3.21666 460.919C1.44057 460.919 0 459.113 0 456.885C0 454.658 1.44057 452.852 3.21666 452.852C4.99553 452.852 6.4361 454.658 6.4361 456.885Z" fill="#1B8BC8"/>
<path fill-rule="evenodd" clip-rule="evenodd" d="M25.7444 456.885C25.7444 459.113 24.3039 460.919 22.5257 460.919C20.7489 460.919 19.3083 459.113 19.3083 456.885C19.3083 454.658 20.7489 452.852 22.5257 452.852C24.3039 452.852 25.7444 454.658 25.7444 456.885Z" fill="#1B8BC8"/>
<path fill-rule="evenodd" clip-rule="evenodd" d="M43.4437 456.885C43.4437 459.113 42.0029 460.919 40.2257 460.919C38.4478 460.919 37.0076 459.113 37.0076 456.885C37.0076 454.658 38.4478 452.852 40.2257 452.852C42.0029 452.852 43.4437 454.658 43.4437 456.885Z" fill="#1B8BC8"/>
<path fill-rule="evenodd" clip-rule="evenodd" d="M62.7519 456.885C62.7519 459.113 61.311 460.919 59.5325 460.919C57.7553 460.919 56.3158 459.113 56.3158 456.885C56.3158 454.658 57.7553 452.852 59.5325 452.852C61.311 452.852 62.7519 454.658 62.7519 456.885Z" fill="#1B8BC8"/>
<path fill-rule="evenodd" clip-rule="evenodd" d="M80.4512 456.885C80.4512 459.113 79.0113 460.919 77.2324 460.919C75.4556 460.919 74.0151 459.113 74.0151 456.885C74.0151 454.658 75.4556 452.852 77.2324 452.852C79.0113 452.852 80.4512 454.658 80.4512 456.885Z" fill="#1B8BC8"/>
<path fill-rule="evenodd" clip-rule="evenodd" d="M6.4361 475.439C6.4361 477.22 4.99553 478.665 3.21666 478.665C1.44057 478.665 0 477.22 0 475.439C0 473.656 1.44057 472.212 3.21666 472.212C4.99553 472.212 6.4361 473.656 6.4361 475.439Z" fill="#1B8BC8"/>
<path fill-rule="evenodd" clip-rule="evenodd" d="M25.7444 475.439C25.7444 477.22 24.3039 478.665 22.5257 478.665C20.7489 478.665 19.3083 477.22 19.3083 475.439C19.3083 473.656 20.7489 472.212 22.5257 472.212C24.3039 472.212 25.7444 473.656 25.7444 475.439Z" fill="#1B8BC8"/>
<path fill-rule="evenodd" clip-rule="evenodd" d="M43.4437 475.439C43.4437 477.22 42.0029 478.665 40.2257 478.665C38.4478 478.665 37.0076 477.22 37.0076 475.439C37.0076 473.656 38.4478 472.212 40.2257 472.212C42.0029 472.212 43.4437 473.656 43.4437 475.439Z" fill="#1B8BC8"/>
<path fill-rule="evenodd" clip-rule="evenodd" d="M62.7519 475.439C62.7519 477.22 61.311 478.665 59.5325 478.665C57.7553 478.665 56.3158 477.22 56.3158 475.439C56.3158 473.656 57.7553 472.212 59.5325 472.212C61.311 472.212 62.7519 473.656 62.7519 475.439Z" fill="#1B8BC8"/>
<path fill-rule="evenodd" clip-rule="evenodd" d="M80.4512 475.439C80.4512 477.22 79.0113 478.665 77.2324 478.665C75.4556 478.665 74.0151 477.22 74.0151 475.439C74.0151 473.656 75.4556 472.212 77.2324 472.212C79.0113 472.212 80.4512 473.656 80.4512 475.439Z" fill="#1B8BC8"/>
<path fill-rule="evenodd" clip-rule="evenodd" d="M6.4361 493.185C6.4361 494.967 4.99553 496.411 3.21666 496.411C1.44057 496.411 0 494.967 0 493.185C0 491.403 1.44057 489.958 3.21666 489.958C4.99553 489.958 6.4361 491.403 6.4361 493.185Z" fill="#1B8BC8"/>
<path fill-rule="evenodd" clip-rule="evenodd" d="M25.7444 493.185C25.7444 494.967 24.3039 496.411 22.5257 496.411C20.7489 496.411 19.3083 494.967 19.3083 493.185C19.3083 491.403 20.7489 489.958 22.5257 489.958C24.3039 489.958 25.7444 491.403 25.7444 493.185Z" fill="#1B8BC8"/>
<path fill-rule="evenodd" clip-rule="evenodd" d="M43.4437 493.185C43.4437 494.967 42.0029 496.411 40.2257 496.411C38.4478 496.411 37.0076 494.967 37.0076 493.185C37.0076 491.403 38.4478 489.958 40.2257 489.958C42.0029 489.958 43.4437 491.403 43.4437 493.185Z" fill="#1B8BC8"/>
<path fill-rule="evenodd" clip-rule="evenodd" d="M62.7519 493.185C62.7519 494.967 61.311 496.411 59.5325 496.411C57.7553 496.411 56.3158 494.967 56.3158 493.185C56.3158 491.403 57.7553 489.958 59.5325 489.958C61.311 489.958 62.7519 491.403 62.7519 493.185Z" fill="#1B8BC8"/>
<path fill-rule="evenodd" clip-rule="evenodd" d="M80.4512 493.185C80.4512 494.967 79.0113 496.411 77.2324 496.411C75.4556 496.411 74.0151 494.967 74.0151 493.185C74.0151 491.403 75.4556 489.958 77.2324 489.958C79.0113 489.958 80.4512 491.403 80.4512 493.185Z" fill="#1B8BC8"/>
<path fill-rule="evenodd" clip-rule="evenodd" d="M99.7595 401.227C99.7595 403.009 98.3196 404.453 96.5408 404.453C94.764 404.453 93.3234 403.009 93.3234 401.227C93.3234 399.444 94.764 398 96.5408 398C98.3196 398 99.7595 399.444 99.7595 401.227Z" fill="#1B8BC8"/>
<path fill-rule="evenodd" clip-rule="evenodd" d="M99.7595 418.973C99.7595 420.755 98.3196 422.2 96.5408 422.2C94.764 422.2 93.3234 420.755 93.3234 418.973C93.3234 417.191 94.764 415.746 96.5408 415.746C98.3196 415.746 99.7595 417.191 99.7595 418.973Z" fill="#1B8BC8"/>
<path fill-rule="evenodd" clip-rule="evenodd" d="M99.7595 439.14C99.7595 441.366 98.3196 443.172 96.5408 443.172C94.764 443.172 93.3234 441.366 93.3234 439.14C93.3234 436.912 94.764 435.106 96.5408 435.106C98.3196 435.106 99.7595 436.912 99.7595 439.14Z" fill="#1B8BC8"/>
<path fill-rule="evenodd" clip-rule="evenodd" d="M99.7595 456.885C99.7595 459.113 98.3196 460.919 96.5408 460.919C94.764 460.919 93.3234 459.113 93.3234 456.885C93.3234 454.658 94.764 452.852 96.5408 452.852C98.3196 452.852 99.7595 454.658 99.7595 456.885Z" fill="#1B8BC8"/>
<path fill-rule="evenodd" clip-rule="evenodd" d="M99.7595 475.439C99.7595 477.22 98.3196 478.665 96.5408 478.665C94.764 478.665 93.3234 477.22 93.3234 475.439C93.3234 473.656 94.764 472.212 96.5408 472.212C98.3196 472.212 99.7595 473.656 99.7595 475.439Z" fill="#1B8BC8"/>
<path fill-rule="evenodd" clip-rule="evenodd" d="M99.7595 493.185C99.7595 494.967 98.3196 496.411 96.5408 496.411C94.764 496.411 93.3234 494.967 93.3234 493.185C93.3234 491.403 94.764 489.958 96.5408 489.958C98.3196 489.958 99.7595 491.403 99.7595 493.185Z" fill="#1B8BC8"/>
<path fill-rule="evenodd" clip-rule="evenodd" d="M6.4361 509.075C6.4361 510.857 4.99553 512.301 3.21666 512.301C1.44057 512.301 0 510.857 0 509.075C0 507.293 1.44057 505.848 3.21666 505.848C4.99553 505.848 6.4361 507.293 6.4361 509.075Z" fill="#1B8BC8"/>
<path fill-rule="evenodd" clip-rule="evenodd" d="M25.7444 509.075C25.7444 510.857 24.3039 512.301 22.5257 512.301C20.7489 512.301 19.3083 510.857 19.3083 509.075C19.3083 507.293 20.7489 505.848 22.5257 505.848C24.3039 505.848 25.7444 507.293 25.7444 509.075Z" fill="#1B8BC8"/>
<path fill-rule="evenodd" clip-rule="evenodd" d="M43.4437 509.075C43.4437 510.857 42.0029 512.301 40.2257 512.301C38.4478 512.301 37.0076 510.857 37.0076 509.075C37.0076 507.293 38.4478 505.848 40.2257 505.848C42.0029 505.848 43.4437 507.293 43.4437 509.075Z" fill="#1B8BC8"/>
<path fill-rule="evenodd" clip-rule="evenodd" d="M62.7519 509.075C62.7519 510.857 61.311 512.301 59.5325 512.301C57.7553 512.301 56.3158 510.857 56.3158 509.075C56.3158 507.293 57.7553 505.848 59.5325 505.848C61.311 505.848 62.7519 507.293 62.7519 509.075Z" fill="#1B8BC8"/>
<path fill-rule="evenodd" clip-rule="evenodd" d="M80.4512 509.075C80.4512 510.857 79.0113 512.301 77.2324 512.301C75.4556 512.301 74.0151 510.857 74.0151 509.075C74.0151 507.293 75.4556 505.848 77.2324 505.848C79.0113 505.848 80.4512 507.293 80.4512 509.075Z" fill="#1B8BC8"/>
<path fill-rule="evenodd" clip-rule="evenodd" d="M6.4361 526.821C6.4361 528.603 4.99553 530.048 3.21666 530.048C1.44057 530.048 0 528.603 0 526.821C0 525.04 1.44057 523.594 3.21666 523.594C4.99553 523.594 6.4361 525.04 6.4361 526.821Z" fill="#1B8BC8"/>
<path fill-rule="evenodd" clip-rule="evenodd" d="M25.7444 526.821C25.7444 528.603 24.3039 530.048 22.5257 530.048C20.7489 530.048 19.3083 528.603 19.3083 526.821C19.3083 525.04 20.7489 523.594 22.5257 523.594C24.3039 523.594 25.7444 525.04 25.7444 526.821Z" fill="#1B8BC8"/>
<path fill-rule="evenodd" clip-rule="evenodd" d="M43.4437 526.821C43.4437 528.603 42.0029 530.048 40.2257 530.048C38.4478 530.048 37.0076 528.603 37.0076 526.821C37.0076 525.04 38.4478 523.594 40.2257 523.594C42.0029 523.594 43.4437 525.04 43.4437 526.821Z" fill="#1B8BC8"/>
<path fill-rule="evenodd" clip-rule="evenodd" d="M62.7519 526.821C62.7519 528.603 61.311 530.048 59.5325 530.048C57.7553 530.048 56.3158 528.603 56.3158 526.821C56.3158 525.04 57.7553 523.594 59.5325 523.594C61.311 523.594 62.7519 525.04 62.7519 526.821Z" fill="#1B8BC8"/>
<path fill-rule="evenodd" clip-rule="evenodd" d="M80.4512 526.821C80.4512 528.603 79.0113 530.048 77.2324 530.048C75.4556 530.048 74.0151 528.603 74.0151 526.821C74.0151 525.04 75.4556 523.594 77.2324 523.594C79.0113 523.594 80.4512 525.04 80.4512 526.821Z" fill="#1B8BC8"/>
<path fill-rule="evenodd" clip-rule="evenodd" d="M6.4361 546.988C6.4361 549.214 4.99553 551.021 3.21666 551.021C1.44057 551.021 0 549.214 0 546.988C0 544.76 1.44057 542.954 3.21666 542.954C4.99553 542.954 6.4361 544.76 6.4361 546.988Z" fill="#1B8BC8"/>
<path fill-rule="evenodd" clip-rule="evenodd" d="M25.7444 546.988C25.7444 549.214 24.3039 551.021 22.5257 551.021C20.7489 551.021 19.3083 549.214 19.3083 546.988C19.3083 544.76 20.7489 542.954 22.5257 542.954C24.3039 542.954 25.7444 544.76 25.7444 546.988Z" fill="#1B8BC8"/>
<path fill-rule="evenodd" clip-rule="evenodd" d="M43.4437 546.988C43.4437 549.214 42.0029 551.021 40.2257 551.021C38.4478 551.021 37.0076 549.214 37.0076 546.988C37.0076 544.76 38.4478 542.954 40.2257 542.954C42.0029 542.954 43.4437 544.76 43.4437 546.988Z" fill="#1B8BC8"/>
<path fill-rule="evenodd" clip-rule="evenodd" d="M62.7519 546.988C62.7519 549.214 61.311 551.021 59.5325 551.021C57.7553 551.021 56.3158 549.214 56.3158 546.988C56.3158 544.76 57.7553 542.954 59.5325 542.954C61.311 542.954 62.7519 544.76 62.7519 546.988Z" fill="#1B8BC8"/>
<path fill-rule="evenodd" clip-rule="evenodd" d="M80.4512 546.988C80.4512 549.214 79.0113 551.021 77.2324 551.021C75.4556 551.021 74.0151 549.214 74.0151 546.988C74.0151 544.76 75.4556 542.954 77.2324 542.954C79.0113 542.954 80.4512 544.76 80.4512 546.988Z" fill="#1B8BC8"/>
<path fill-rule="evenodd" clip-rule="evenodd" d="M6.4361 564.733C6.4361 566.961 4.99553 568.767 3.21666 568.767C1.44057 568.767 0 566.961 0 564.733C0 562.507 1.44057 560.7 3.21666 560.7C4.99553 560.7 6.4361 562.507 6.4361 564.733Z" fill="#1B8BC8"/>
<path fill-rule="evenodd" clip-rule="evenodd" d="M25.7444 564.733C25.7444 566.961 24.3039 568.767 22.5257 568.767C20.7489 568.767 19.3083 566.961 19.3083 564.733C19.3083 562.507 20.7489 560.7 22.5257 560.7C24.3039 560.7 25.7444 562.507 25.7444 564.733Z" fill="#1B8BC8"/>
<path fill-rule="evenodd" clip-rule="evenodd" d="M43.4437 564.733C43.4437 566.961 42.0029 568.767 40.2257 568.767C38.4478 568.767 37.0076 566.961 37.0076 564.733C37.0076 562.507 38.4478 560.7 40.2257 560.7C42.0029 560.7 43.4437 562.507 43.4437 564.733Z" fill="#1B8BC8"/>
<path fill-rule="evenodd" clip-rule="evenodd" d="M62.7519 564.733C62.7519 566.961 61.311 568.767 59.5325 568.767C57.7553 568.767 56.3158 566.961 56.3158 564.733C56.3158 562.507 57.7553 560.7 59.5325 560.7C61.311 560.7 62.7519 562.507 62.7519 564.733Z" fill="#1B8BC8"/>
<path fill-rule="evenodd" clip-rule="evenodd" d="M80.4512 564.733C80.4512 566.961 79.0113 568.767 77.2324 568.767C75.4556 568.767 74.0151 566.961 74.0151 564.733C74.0151 562.507 75.4556 560.7 77.2324 560.7C79.0113 560.7 80.4512 562.507 80.4512 564.733Z" fill="#1B8BC8"/>
<path fill-rule="evenodd" clip-rule="evenodd" d="M6.4361 583.287C6.4361 585.068 4.99553 586.513 3.21666 586.513C1.44057 586.513 0 585.068 0 583.287C0 581.504 1.44057 580.06 3.21666 580.06C4.99553 580.06 6.4361 581.504 6.4361 583.287Z" fill="#1B8BC8"/>
<path fill-rule="evenodd" clip-rule="evenodd" d="M25.7444 583.287C25.7444 585.068 24.3039 586.513 22.5257 586.513C20.7489 586.513 19.3083 585.068 19.3083 583.287C19.3083 581.504 20.7489 580.06 22.5257 580.06C24.3039 580.06 25.7444 581.504 25.7444 583.287Z" fill="#1B8BC8"/>
<path fill-rule="evenodd" clip-rule="evenodd" d="M43.4437 583.287C43.4437 585.068 42.0029 586.513 40.2257 586.513C38.4478 586.513 37.0076 585.068 37.0076 583.287C37.0076 581.504 38.4478 580.06 40.2257 580.06C42.0029 580.06 43.4437 581.504 43.4437 583.287Z" fill="#1B8BC8"/>
<path fill-rule="evenodd" clip-rule="evenodd" d="M62.7519 583.287C62.7519 585.068 61.311 586.513 59.5325 586.513C57.7553 586.513 56.3158 585.068 56.3158 583.287C56.3158 581.504 57.7553 580.06 59.5325 580.06C61.311 580.06 62.7519 581.504 62.7519 583.287Z" fill="#1B8BC8"/>
<path fill-rule="evenodd" clip-rule="evenodd" d="M80.4512 583.287C80.4512 585.068 79.0113 586.513 77.2324 586.513C75.4556 586.513 74.0151 585.068 74.0151 583.287C74.0151 581.504 75.4556 580.06 77.2324 580.06C79.0113 580.06 80.4512 581.504 80.4512 583.287Z" fill="#1B8BC8"/>
<path fill-rule="evenodd" clip-rule="evenodd" d="M6.4361 601.033C6.4361 602.815 4.99553 604.26 3.21666 604.26C1.44057 604.26 0 602.815 0 601.033C0 599.251 1.44057 597.806 3.21666 597.806C4.99553 597.806 6.4361 599.251 6.4361 601.033Z" fill="#1B8BC8"/>
<path fill-rule="evenodd" clip-rule="evenodd" d="M25.7444 601.033C25.7444 602.815 24.3039 604.26 22.5257 604.26C20.7489 604.26 19.3083 602.815 19.3083 601.033C19.3083 599.251 20.7489 597.806 22.5257 597.806C24.3039 597.806 25.7444 599.251 25.7444 601.033Z" fill="#1B8BC8"/>
<path fill-rule="evenodd" clip-rule="evenodd" d="M43.4437 601.033C43.4437 602.815 42.0029 604.26 40.2257 604.26C38.4478 604.26 37.0076 602.815 37.0076 601.033C37.0076 599.251 38.4478 597.806 40.2257 597.806C42.0029 597.806 43.4437 599.251 43.4437 601.033Z" fill="#1B8BC8"/>
<path fill-rule="evenodd" clip-rule="evenodd" d="M62.7519 601.033C62.7519 602.815 61.311 604.26 59.5325 604.26C57.7553 604.26 56.3158 602.815 56.3158 601.033C56.3158 599.251 57.7553 597.806 59.5325 597.806C61.311 597.806 62.7519 599.251 62.7519 601.033Z" fill="#1B8BC8"/>
<path fill-rule="evenodd" clip-rule="evenodd" d="M80.4512 601.033C80.4512 602.815 79.0113 604.26 77.2324 604.26C75.4556 604.26 74.0151 602.815 74.0151 601.033C74.0151 599.251 75.4556 597.806 77.2324 597.806C79.0113 597.806 80.4512 599.251 80.4512 601.033Z" fill="#1B8BC8"/>
<path fill-rule="evenodd" clip-rule="evenodd" d="M99.7595 509.075C99.7595 510.857 98.3196 512.301 96.5408 512.301C94.764 512.301 93.3234 510.857 93.3234 509.075C93.3234 507.293 94.764 505.848 96.5408 505.848C98.3196 505.848 99.7595 507.293 99.7595 509.075Z" fill="#1B8BC8"/>
<path fill-rule="evenodd" clip-rule="evenodd" d="M99.7595 526.821C99.7595 528.603 98.3196 530.048 96.5408 530.048C94.764 530.048 93.3234 528.603 93.3234 526.821C93.3234 525.04 94.764 523.594 96.5408 523.594C98.3196 523.594 99.7595 525.04 99.7595 526.821Z" fill="#1B8BC8"/>
<path fill-rule="evenodd" clip-rule="evenodd" d="M99.7595 546.988C99.7595 549.214 98.3196 551.021 96.5408 551.021C94.764 551.021 93.3234 549.214 93.3234 546.988C93.3234 544.76 94.764 542.954 96.5408 542.954C98.3196 542.954 99.7595 544.76 99.7595 546.988Z" fill="#1B8BC8"/>
<path fill-rule="evenodd" clip-rule="evenodd" d="M99.7595 564.733C99.7595 566.961 98.3196 568.767 96.5408 568.767C94.764 568.767 93.3234 566.961 93.3234 564.733C93.3234 562.507 94.764 560.7 96.5408 560.7C98.3196 560.7 99.7595 562.507 99.7595 564.733Z" fill="#1B8BC8"/>
<path fill-rule="evenodd" clip-rule="evenodd" d="M99.7595 583.287C99.7595 585.068 98.3196 586.513 96.5408 586.513C94.764 586.513 93.3234 585.068 93.3234 583.287C93.3234 581.504 94.764 580.06 96.5408 580.06C98.3196 580.06 99.7595 581.504 99.7595 583.287Z" fill="#1B8BC8"/>
<path fill-rule="evenodd" clip-rule="evenodd" d="M99.7595 601.033C99.7595 602.815 98.3196 604.26 96.5408 604.26C94.764 604.26 93.3234 602.815 93.3234 601.033C93.3234 599.251 94.764 597.806 96.5408 597.806C98.3196 597.806 99.7595 599.251 99.7595 601.033Z" fill="#1B8BC8"/>
<path fill-rule="evenodd" clip-rule="evenodd" d="M119.677 401.227C119.677 403.009 118.236 404.453 116.457 404.453C114.681 404.453 113.24 403.009 113.24 401.227C113.24 399.444 114.681 398 116.457 398C118.236 398 119.677 399.444 119.677 401.227Z" fill="#1B8BC8"/>
<path fill-rule="evenodd" clip-rule="evenodd" d="M138.985 401.227C138.985 403.009 137.544 404.453 135.766 404.453C133.989 404.453 132.549 403.009 132.549 401.227C132.549 399.444 133.989 398 135.766 398C137.544 398 138.985 399.444 138.985 401.227Z" fill="#1B8BC8"/>
<path fill-rule="evenodd" clip-rule="evenodd" d="M156.684 401.227C156.684 403.009 155.243 404.453 153.466 404.453C151.688 404.453 150.248 403.009 150.248 401.227C150.248 399.444 151.688 398 153.466 398C155.243 398 156.684 399.444 156.684 401.227Z" fill="#1B8BC8"/>
<path fill-rule="evenodd" clip-rule="evenodd" d="M175.992 401.227C175.992 403.009 174.552 404.453 172.773 404.453C170.996 404.453 169.556 403.009 169.556 401.227C169.556 399.444 170.996 398 172.773 398C174.552 398 175.992 399.444 175.992 401.227Z" fill="#1B8BC8"/>
<path fill-rule="evenodd" clip-rule="evenodd" d="M193.692 401.227C193.692 403.009 192.252 404.453 190.473 404.453C188.696 404.453 187.256 403.009 187.256 401.227C187.256 399.444 188.696 398 190.473 398C192.252 398 193.692 399.444 193.692 401.227Z" fill="#1B8BC8"/>
<path fill-rule="evenodd" clip-rule="evenodd" d="M119.677 418.973C119.677 420.755 118.236 422.2 116.457 422.2C114.681 422.2 113.24 420.755 113.24 418.973C113.24 417.191 114.681 415.746 116.457 415.746C118.236 415.746 119.677 417.191 119.677 418.973Z" fill="#1B8BC8"/>
<path fill-rule="evenodd" clip-rule="evenodd" d="M138.985 418.973C138.985 420.755 137.544 422.2 135.766 422.2C133.989 422.2 132.549 420.755 132.549 418.973C132.549 417.191 133.989 415.746 135.766 415.746C137.544 415.746 138.985 417.191 138.985 418.973Z" fill="#1B8BC8"/>
<path fill-rule="evenodd" clip-rule="evenodd" d="M156.684 418.973C156.684 420.755 155.243 422.2 153.466 422.2C151.688 422.2 150.248 420.755 150.248 418.973C150.248 417.191 151.688 415.746 153.466 415.746C155.243 415.746 156.684 417.191 156.684 418.973Z" fill="#1B8BC8"/>
<path fill-rule="evenodd" clip-rule="evenodd" d="M175.992 418.973C175.992 420.755 174.552 422.2 172.773 422.2C170.996 422.2 169.556 420.755 169.556 418.973C169.556 417.191 170.996 415.746 172.773 415.746C174.552 415.746 175.992 417.191 175.992 418.973Z" fill="#1B8BC8"/>
<path fill-rule="evenodd" clip-rule="evenodd" d="M193.692 418.973C193.692 420.755 192.252 422.2 190.473 422.2C188.696 422.2 187.256 420.755 187.256 418.973C187.256 417.191 188.696 415.746 190.473 415.746C192.252 415.746 193.692 417.191 193.692 418.973Z" fill="#1B8BC8"/>
<path fill-rule="evenodd" clip-rule="evenodd" d="M119.677 439.14C119.677 441.366 118.236 443.172 116.457 443.172C114.681 443.172 113.24 441.366 113.24 439.14C113.24 436.912 114.681 435.106 116.457 435.106C118.236 435.106 119.677 436.912 119.677 439.14Z" fill="#1B8BC8"/>
<path fill-rule="evenodd" clip-rule="evenodd" d="M138.985 439.14C138.985 441.366 137.544 443.172 135.766 443.172C133.989 443.172 132.549 441.366 132.549 439.14C132.549 436.912 133.989 435.106 135.766 435.106C137.544 435.106 138.985 436.912 138.985 439.14Z" fill="#1B8BC8"/>
<path fill-rule="evenodd" clip-rule="evenodd" d="M156.684 439.14C156.684 441.366 155.243 443.172 153.466 443.172C151.688 443.172 150.248 441.366 150.248 439.14C150.248 436.912 151.688 435.106 153.466 435.106C155.243 435.106 156.684 436.912 156.684 439.14Z" fill="#1B8BC8"/>
<path fill-rule="evenodd" clip-rule="evenodd" d="M175.992 439.14C175.992 441.366 174.552 443.172 172.773 443.172C170.996 443.172 169.556 441.366 169.556 439.14C169.556 436.912 170.996 435.106 172.773 435.106C174.552 435.106 175.992 436.912 175.992 439.14Z" fill="#1B8BC8"/>
<path fill-rule="evenodd" clip-rule="evenodd" d="M193.692 439.14C193.692 441.366 192.252 443.172 190.473 443.172C188.696 443.172 187.256 441.366 187.256 439.14C187.256 436.912 188.696 435.106 190.473 435.106C192.252 435.106 193.692 436.912 193.692 439.14Z" fill="#1B8BC8"/>
<path fill-rule="evenodd" clip-rule="evenodd" d="M119.677 456.885C119.677 459.113 118.236 460.919 116.457 460.919C114.681 460.919 113.24 459.113 113.24 456.885C113.24 454.658 114.681 452.852 116.457 452.852C118.236 452.852 119.677 454.658 119.677 456.885Z" fill="#1B8BC8"/>
<path fill-rule="evenodd" clip-rule="evenodd" d="M138.985 456.885C138.985 459.113 137.544 460.919 135.766 460.919C133.989 460.919 132.549 459.113 132.549 456.885C132.549 454.658 133.989 452.852 135.766 452.852C137.544 452.852 138.985 454.658 138.985 456.885Z" fill="#1B8BC8"/>
<path fill-rule="evenodd" clip-rule="evenodd" d="M156.684 456.885C156.684 459.113 155.243 460.919 153.466 460.919C151.688 460.919 150.248 459.113 150.248 456.885C150.248 454.658 151.688 452.852 153.466 452.852C155.243 452.852 156.684 454.658 156.684 456.885Z" fill="#1B8BC8"/>
<path fill-rule="evenodd" clip-rule="evenodd" d="M175.992 456.885C175.992 459.113 174.552 460.919 172.773 460.919C170.996 460.919 169.556 459.113 169.556 456.885C169.556 454.658 170.996 452.852 172.773 452.852C174.552 452.852 175.992 454.658 175.992 456.885Z" fill="#1B8BC8"/>
<path fill-rule="evenodd" clip-rule="evenodd" d="M193.692 456.885C193.692 459.113 192.252 460.919 190.473 460.919C188.696 460.919 187.256 459.113 187.256 456.885C187.256 454.658 188.696 452.852 190.473 452.852C192.252 452.852 193.692 454.658 193.692 456.885Z" fill="#1B8BC8"/>
<path fill-rule="evenodd" clip-rule="evenodd" d="M119.677 475.439C119.677 477.22 118.236 478.665 116.457 478.665C114.681 478.665 113.24 477.22 113.24 475.439C113.24 473.656 114.681 472.212 116.457 472.212C118.236 472.212 119.677 473.656 119.677 475.439Z" fill="#1B8BC8"/>
<path fill-rule="evenodd" clip-rule="evenodd" d="M138.985 475.439C138.985 477.22 137.544 478.665 135.766 478.665C133.989 478.665 132.549 477.22 132.549 475.439C132.549 473.656 133.989 472.212 135.766 472.212C137.544 472.212 138.985 473.656 138.985 475.439Z" fill="#1B8BC8"/>
<path fill-rule="evenodd" clip-rule="evenodd" d="M156.684 475.439C156.684 477.22 155.243 478.665 153.466 478.665C151.688 478.665 150.248 477.22 150.248 475.439C150.248 473.656 151.688 472.212 153.466 472.212C155.243 472.212 156.684 473.656 156.684 475.439Z" fill="#1B8BC8"/>
<path fill-rule="evenodd" clip-rule="evenodd" d="M175.992 475.439C175.992 477.22 174.552 478.665 172.773 478.665C170.996 478.665 169.556 477.22 169.556 475.439C169.556 473.656 170.996 472.212 172.773 472.212C174.552 472.212 175.992 473.656 175.992 475.439Z" fill="#1B8BC8"/>
<path fill-rule="evenodd" clip-rule="evenodd" d="M193.692 475.439C193.692 477.22 192.252 478.665 190.473 478.665C188.696 478.665 187.256 477.22 187.256 475.439C187.256 473.656 188.696 472.212 190.473 472.212C192.252 472.212 193.692 473.656 193.692 475.439Z" fill="#1B8BC8"/>
<path fill-rule="evenodd" clip-rule="evenodd" d="M119.677 493.185C119.677 494.967 118.236 496.411 116.457 496.411C114.681 496.411 113.24 494.967 113.24 493.185C113.24 491.403 114.681 489.958 116.457 489.958C118.236 489.958 119.677 491.403 119.677 493.185Z" fill="#1B8BC8"/>
<path fill-rule="evenodd" clip-rule="evenodd" d="M138.985 493.185C138.985 494.967 137.544 496.411 135.766 496.411C133.989 496.411 132.549 494.967 132.549 493.185C132.549 491.403 133.989 489.958 135.766 489.958C137.544 489.958 138.985 491.403 138.985 493.185Z" fill="#1B8BC8"/>
<path fill-rule="evenodd" clip-rule="evenodd" d="M156.684 493.185C156.684 494.967 155.243 496.411 153.466 496.411C151.688 496.411 150.248 494.967 150.248 493.185C150.248 491.403 151.688 489.958 153.466 489.958C155.243 489.958 156.684 491.403 156.684 493.185Z" fill="#1B8BC8"/>
<path fill-rule="evenodd" clip-rule="evenodd" d="M175.992 493.185C175.992 494.967 174.552 496.411 172.773 496.411C170.996 496.411 169.556 494.967 169.556 493.185C169.556 491.403 170.996 489.958 172.773 489.958C174.552 489.958 175.992 491.403 175.992 493.185Z" fill="#1B8BC8"/>
<path fill-rule="evenodd" clip-rule="evenodd" d="M193.692 493.185C193.692 494.967 192.252 496.411 190.473 496.411C188.696 496.411 187.256 494.967 187.256 493.185C187.256 491.403 188.696 489.958 190.473 489.958C192.252 489.958 193.692 491.403 193.692 493.185Z" fill="#1B8BC8"/>
<path fill-rule="evenodd" clip-rule="evenodd" d="M213 401.227C213 403.009 211.56 404.453 209.781 404.453C208.005 404.453 206.564 403.009 206.564 401.227C206.564 399.444 208.005 398 209.781 398C211.56 398 213 399.444 213 401.227Z" fill="#1B8BC8"/>
<path fill-rule="evenodd" clip-rule="evenodd" d="M213 418.973C213 420.755 211.56 422.2 209.781 422.2C208.005 422.2 206.564 420.755 206.564 418.973C206.564 417.191 208.005 415.746 209.781 415.746C211.56 415.746 213 417.191 213 418.973Z" fill="#1B8BC8"/>
<path fill-rule="evenodd" clip-rule="evenodd" d="M213 439.14C213 441.366 211.56 443.172 209.781 443.172C208.005 443.172 206.564 441.366 206.564 439.14C206.564 436.912 208.005 435.106 209.781 435.106C211.56 435.106 213 436.912 213 439.14Z" fill="#1B8BC8"/>
<path fill-rule="evenodd" clip-rule="evenodd" d="M213 456.885C213 459.113 211.56 460.919 209.781 460.919C208.005 460.919 206.564 459.113 206.564 456.885C206.564 454.658 208.005 452.852 209.781 452.852C211.56 452.852 213 454.658 213 456.885Z" fill="#1B8BC8"/>
<path fill-rule="evenodd" clip-rule="evenodd" d="M213 475.439C213 477.22 211.56 478.665 209.781 478.665C208.005 478.665 206.564 477.22 206.564 475.439C206.564 473.656 208.005 472.212 209.781 472.212C211.56 472.212 213 473.656 213 475.439Z" fill="#1B8BC8"/>
<path fill-rule="evenodd" clip-rule="evenodd" d="M213 493.185C213 494.967 211.56 496.411 209.781 496.411C208.005 496.411 206.564 494.967 206.564 493.185C206.564 491.403 208.005 489.958 209.781 489.958C211.56 489.958 213 491.403 213 493.185Z" fill="#1B8BC8"/>
<path fill-rule="evenodd" clip-rule="evenodd" d="M119.677 509.075C119.677 510.857 118.236 512.301 116.457 512.301C114.681 512.301 113.24 510.857 113.24 509.075C113.24 507.293 114.681 505.848 116.457 505.848C118.236 505.848 119.677 507.293 119.677 509.075Z" fill="#1B8BC8"/>
<path fill-rule="evenodd" clip-rule="evenodd" d="M138.985 509.075C138.985 510.857 137.544 512.301 135.766 512.301C133.989 512.301 132.549 510.857 132.549 509.075C132.549 507.293 133.989 505.848 135.766 505.848C137.544 505.848 138.985 507.293 138.985 509.075Z" fill="#1B8BC8"/>
<path fill-rule="evenodd" clip-rule="evenodd" d="M156.684 509.075C156.684 510.857 155.243 512.301 153.466 512.301C151.688 512.301 150.248 510.857 150.248 509.075C150.248 507.293 151.688 505.848 153.466 505.848C155.243 505.848 156.684 507.293 156.684 509.075Z" fill="#1B8BC8"/>
<path fill-rule="evenodd" clip-rule="evenodd" d="M175.992 509.075C175.992 510.857 174.552 512.301 172.773 512.301C170.996 512.301 169.556 510.857 169.556 509.075C169.556 507.293 170.996 505.848 172.773 505.848C174.552 505.848 175.992 507.293 175.992 509.075Z" fill="#1B8BC8"/>
<path fill-rule="evenodd" clip-rule="evenodd" d="M193.692 509.075C193.692 510.857 192.252 512.301 190.473 512.301C188.696 512.301 187.256 510.857 187.256 509.075C187.256 507.293 188.696 505.848 190.473 505.848C192.252 505.848 193.692 507.293 193.692 509.075Z" fill="#1B8BC8"/>
<path fill-rule="evenodd" clip-rule="evenodd" d="M119.677 526.821C119.677 528.603 118.236 530.048 116.457 530.048C114.681 530.048 113.24 528.603 113.24 526.821C113.24 525.04 114.681 523.594 116.457 523.594C118.236 523.594 119.677 525.04 119.677 526.821Z" fill="#1B8BC8"/>
<path fill-rule="evenodd" clip-rule="evenodd" d="M138.985 526.821C138.985 528.603 137.544 530.048 135.766 530.048C133.989 530.048 132.549 528.603 132.549 526.821C132.549 525.04 133.989 523.594 135.766 523.594C137.544 523.594 138.985 525.04 138.985 526.821Z" fill="#1B8BC8"/>
<path fill-rule="evenodd" clip-rule="evenodd" d="M156.684 526.821C156.684 528.603 155.243 530.048 153.466 530.048C151.688 530.048 150.248 528.603 150.248 526.821C150.248 525.04 151.688 523.594 153.466 523.594C155.243 523.594 156.684 525.04 156.684 526.821Z" fill="#1B8BC8"/>
<path fill-rule="evenodd" clip-rule="evenodd" d="M175.992 526.821C175.992 528.603 174.552 530.048 172.773 530.048C170.996 530.048 169.556 528.603 169.556 526.821C169.556 525.04 170.996 523.594 172.773 523.594C174.552 523.594 175.992 525.04 175.992 526.821Z" fill="#1B8BC8"/>
<path fill-rule="evenodd" clip-rule="evenodd" d="M193.692 526.821C193.692 528.603 192.252 530.048 190.473 530.048C188.696 530.048 187.256 528.603 187.256 526.821C187.256 525.04 188.696 523.594 190.473 523.594C192.252 523.594 193.692 525.04 193.692 526.821Z" fill="#1B8BC8"/>
<path fill-rule="evenodd" clip-rule="evenodd" d="M119.677 546.988C119.677 549.214 118.236 551.021 116.457 551.021C114.681 551.021 113.24 549.214 113.24 546.988C113.24 544.76 114.681 542.954 116.457 542.954C118.236 542.954 119.677 544.76 119.677 546.988Z" fill="#1B8BC8"/>
<path fill-rule="evenodd" clip-rule="evenodd" d="M138.985 546.988C138.985 549.214 137.544 551.021 135.766 551.021C133.989 551.021 132.549 549.214 132.549 546.988C132.549 544.76 133.989 542.954 135.766 542.954C137.544 542.954 138.985 544.76 138.985 546.988Z" fill="#1B8BC8"/>
<path fill-rule="evenodd" clip-rule="evenodd" d="M156.684 546.988C156.684 549.214 155.243 551.021 153.466 551.021C151.688 551.021 150.248 549.214 150.248 546.988C150.248 544.76 151.688 542.954 153.466 542.954C155.243 542.954 156.684 544.76 156.684 546.988Z" fill="#1B8BC8"/>
<path fill-rule="evenodd" clip-rule="evenodd" d="M175.992 546.988C175.992 549.214 174.552 551.021 172.773 551.021C170.996 551.021 169.556 549.214 169.556 546.988C169.556 544.76 170.996 542.954 172.773 542.954C174.552 542.954 175.992 544.76 175.992 546.988Z" fill="#1B8BC8"/>
<path fill-rule="evenodd" clip-rule="evenodd" d="M193.692 546.988C193.692 549.214 192.252 551.021 190.473 551.021C188.696 551.021 187.256 549.214 187.256 546.988C187.256 544.76 188.696 542.954 190.473 542.954C192.252 542.954 193.692 544.76 193.692 546.988Z" fill="#1B8BC8"/>
<path fill-rule="evenodd" clip-rule="evenodd" d="M119.677 564.733C119.677 566.961 118.236 568.767 116.457 568.767C114.681 568.767 113.24 566.961 113.24 564.733C113.24 562.507 114.681 560.7 116.457 560.7C118.236 560.7 119.677 562.507 119.677 564.733Z" fill="#1B8BC8"/>
<path fill-rule="evenodd" clip-rule="evenodd" d="M138.985 564.733C138.985 566.961 137.544 568.767 135.766 568.767C133.989 568.767 132.549 566.961 132.549 564.733C132.549 562.507 133.989 560.7 135.766 560.7C137.544 560.7 138.985 562.507 138.985 564.733Z" fill="#1B8BC8"/>
<path fill-rule="evenodd" clip-rule="evenodd" d="M156.684 564.733C156.684 566.961 155.243 568.767 153.466 568.767C151.688 568.767 150.248 566.961 150.248 564.733C150.248 562.507 151.688 560.7 153.466 560.7C155.243 560.7 156.684 562.507 156.684 564.733Z" fill="#1B8BC8"/>
<path fill-rule="evenodd" clip-rule="evenodd" d="M175.992 564.733C175.992 566.961 174.552 568.767 172.773 568.767C170.996 568.767 169.556 566.961 169.556 564.733C169.556 562.507 170.996 560.7 172.773 560.7C174.552 560.7 175.992 562.507 175.992 564.733Z" fill="#1B8BC8"/>
<path fill-rule="evenodd" clip-rule="evenodd" d="M193.692 564.733C193.692 566.961 192.252 568.767 190.473 568.767C188.696 568.767 187.256 566.961 187.256 564.733C187.256 562.507 188.696 560.7 190.473 560.7C192.252 560.7 193.692 562.507 193.692 564.733Z" fill="#1B8BC8"/>
<path fill-rule="evenodd" clip-rule="evenodd" d="M119.677 583.287C119.677 585.068 118.236 586.513 116.457 586.513C114.681 586.513 113.24 585.068 113.24 583.287C113.24 581.504 114.681 580.06 116.457 580.06C118.236 580.06 119.677 581.504 119.677 583.287Z" fill="#1B8BC8"/>
<path fill-rule="evenodd" clip-rule="evenodd" d="M138.985 583.287C138.985 585.068 137.544 586.513 135.766 586.513C133.989 586.513 132.549 585.068 132.549 583.287C132.549 581.504 133.989 580.06 135.766 580.06C137.544 580.06 138.985 581.504 138.985 583.287Z" fill="#1B8BC8"/>
<path fill-rule="evenodd" clip-rule="evenodd" d="M156.684 583.287C156.684 585.068 155.243 586.513 153.466 586.513C151.688 586.513 150.248 585.068 150.248 583.287C150.248 581.504 151.688 580.06 153.466 580.06C155.243 580.06 156.684 581.504 156.684 583.287Z" fill="#1B8BC8"/>
<path fill-rule="evenodd" clip-rule="evenodd" d="M175.992 583.287C175.992 585.068 174.552 586.513 172.773 586.513C170.996 586.513 169.556 585.068 169.556 583.287C169.556 581.504 170.996 580.06 172.773 580.06C174.552 580.06 175.992 581.504 175.992 583.287Z" fill="#1B8BC8"/>
<path fill-rule="evenodd" clip-rule="evenodd" d="M193.692 583.287C193.692 585.068 192.252 586.513 190.473 586.513C188.696 586.513 187.256 585.068 187.256 583.287C187.256 581.504 188.696 580.06 190.473 580.06C192.252 580.06 193.692 581.504 193.692 583.287Z" fill="#1B8BC8"/>
<path fill-rule="evenodd" clip-rule="evenodd" d="M119.677 601.033C119.677 602.815 118.236 604.26 116.457 604.26C114.681 604.26 113.24 602.815 113.24 601.033C113.24 599.251 114.681 597.806 116.457 597.806C118.236 597.806 119.677 599.251 119.677 601.033Z" fill="#1B8BC8"/>
<path fill-rule="evenodd" clip-rule="evenodd" d="M138.985 601.033C138.985 602.815 137.544 604.26 135.766 604.26C133.989 604.26 132.549 602.815 132.549 601.033C132.549 599.251 133.989 597.806 135.766 597.806C137.544 597.806 138.985 599.251 138.985 601.033Z" fill="#1B8BC8"/>
<path fill-rule="evenodd" clip-rule="evenodd" d="M156.684 601.033C156.684 602.815 155.243 604.26 153.466 604.26C151.688 604.26 150.248 602.815 150.248 601.033C150.248 599.251 151.688 597.806 153.466 597.806C155.243 597.806 156.684 599.251 156.684 601.033Z" fill="#1B8BC8"/>
<path fill-rule="evenodd" clip-rule="evenodd" d="M175.992 601.033C175.992 602.815 174.552 604.26 172.773 604.26C170.996 604.26 169.556 602.815 169.556 601.033C169.556 599.251 170.996 597.806 172.773 597.806C174.552 597.806 175.992 599.251 175.992 601.033Z" fill="#1B8BC8"/>
<path fill-rule="evenodd" clip-rule="evenodd" d="M193.692 601.033C193.692 602.815 192.252 604.26 190.473 604.26C188.696 604.26 187.256 602.815 187.256 601.033C187.256 599.251 188.696 597.806 190.473 597.806C192.252 597.806 193.692 599.251 193.692 601.033Z" fill="#1B8BC8"/>
<path fill-rule="evenodd" clip-rule="evenodd" d="M213 509.075C213 510.857 211.56 512.301 209.781 512.301C208.005 512.301 206.564 510.857 206.564 509.075C206.564 507.293 208.005 505.848 209.781 505.848C211.56 505.848 213 507.293 213 509.075Z" fill="#1B8BC8"/>
<path fill-rule="evenodd" clip-rule="evenodd" d="M213 526.821C213 528.603 211.56 530.048 209.781 530.048C208.005 530.048 206.564 528.603 206.564 526.821C206.564 525.04 208.005 523.594 209.781 523.594C211.56 523.594 213 525.04 213 526.821Z" fill="#1B8BC8"/>
<path fill-rule="evenodd" clip-rule="evenodd" d="M213 546.988C213 549.214 211.56 551.021 209.781 551.021C208.005 551.021 206.564 549.214 206.564 546.988C206.564 544.76 208.005 542.954 209.781 542.954C211.56 542.954 213 544.76 213 546.988Z" fill="#1B8BC8"/>
<path fill-rule="evenodd" clip-rule="evenodd" d="M213 564.733C213 566.961 211.56 568.767 209.781 568.767C208.005 568.767 206.564 566.961 206.564 564.733C206.564 562.507 208.005 560.7 209.781 560.7C211.56 560.7 213 562.507 213 564.733Z" fill="#1B8BC8"/>
<path fill-rule="evenodd" clip-rule="evenodd" d="M213 583.287C213 585.068 211.56 586.513 209.781 586.513C208.005 586.513 206.564 585.068 206.564 583.287C206.564 581.504 208.005 580.06 209.781 580.06C211.56 580.06 213 581.504 213 583.287Z" fill="#1B8BC8"/>
<path fill-rule="evenodd" clip-rule="evenodd" d="M213 601.033C213 602.815 211.56 604.26 209.781 604.26C208.005 604.26 206.564 602.815 206.564 601.033C206.564 599.251 208.005 597.806 209.781 597.806C211.56 597.806 213 599.251 213 601.033Z" fill="#1B8BC8"/>
<path opacity="0.7" d="M419.46 167.783C416.889 167.86 414.341 167.281 412.055 166.1L352.38 131.635C351.483 131.209 350.716 130.551 350.159 129.728C349.603 128.905 349.277 127.948 349.217 126.957C349.381 125.7 349.868 124.507 350.628 123.492C351.389 122.478 352.398 121.678 353.558 121.167L410.776 88.082C413.338 86.6771 416.189 85.8825 419.108 85.7599C422.027 85.6373 424.935 86.1901 427.605 87.3752L487.28 121.841C488.178 122.266 488.944 122.925 489.501 123.748C490.057 124.57 490.383 125.527 490.444 126.519C490.294 127.798 489.816 129.016 489.055 130.054C488.294 131.092 487.276 131.915 486.102 132.443L428.884 165.528C425.982 167.059 422.741 167.834 419.46 167.783ZM412.728 164.922C415.207 166.047 417.915 166.572 420.634 166.455C423.353 166.338 426.006 165.582 428.379 164.249L485.597 131.164C486.561 130.748 487.403 130.095 488.044 129.265C488.686 128.435 489.106 127.455 489.266 126.418C489.177 125.689 488.901 124.996 488.465 124.406C488.028 123.816 487.446 123.35 486.775 123.052L427.201 88.4522C424.721 87.3358 422.014 86.8152 419.296 86.932C416.578 87.0489 413.926 87.8001 411.55 89.1254L354.332 122.211C353.369 122.626 352.527 123.28 351.885 124.11C351.244 124.94 350.823 125.919 350.664 126.957C350.734 127.712 351.001 128.436 351.438 129.056C351.875 129.676 352.467 130.17 353.154 130.491L412.728 164.922Z" fill="#6B5E9A"/>
<path opacity="0.7" d="M150.94 101.309C149.698 101.343 148.468 101.053 147.372 100.468L120.143 84.7499C119.679 84.5305 119.284 84.1891 118.999 83.7622C118.714 83.3353 118.551 82.839 118.527 82.3265C118.587 81.6765 118.818 81.054 119.197 80.522C119.575 79.99 120.087 79.5675 120.681 79.2973L146.833 64.2187C148.061 63.5222 149.438 63.1284 150.848 63.0699C152.259 63.0114 153.663 63.2898 154.945 63.8822L182.174 79.6002C182.64 79.8252 183.037 80.1726 183.321 80.6053C183.606 81.038 183.768 81.5398 183.789 82.0572C183.726 82.7062 183.494 83.3273 183.116 83.8587C182.738 84.3902 182.227 84.8134 181.635 85.0864L155.483 100.165C154.094 100.936 152.528 101.33 150.94 101.309ZM148.045 99.3236C149.118 99.7859 150.283 99.996 151.45 99.9377C152.617 99.8793 153.755 99.5541 154.777 98.987L181.029 83.9084C181.407 83.7423 181.739 83.4871 181.997 83.1647C182.255 82.8424 182.431 82.4624 182.51 82.0572C182.48 81.7799 182.377 81.5155 182.211 81.2909C182.046 81.0662 181.824 80.8894 181.568 80.7783L154.339 65.0602C153.268 64.5927 152.105 64.3769 150.938 64.4294C149.771 64.482 148.632 64.8014 147.607 65.3631L121.456 80.4753C120.513 81.0139 119.975 81.687 119.975 82.3265C120.008 82.6028 120.113 82.8658 120.278 83.0898C120.443 83.3139 120.663 83.4916 120.917 83.6055L148.045 99.3236Z" fill="#6B5E9A"/>
<path opacity="0.7" d="M434.067 559.153C431.482 559.224 428.922 558.633 426.629 557.437L366.988 523.005C366.086 522.586 365.315 521.929 364.757 521.104C364.2 520.28 363.877 519.32 363.824 518.327C363.973 517.048 364.451 515.83 365.213 514.792C365.974 513.753 366.991 512.93 368.166 512.403L425.383 479.318C427.966 477.884 430.85 477.076 433.802 476.959C436.754 476.842 439.692 477.419 442.381 478.645L502.022 513.076C502.921 513.499 503.69 514.157 504.247 514.98C504.804 515.804 505.128 516.762 505.186 517.755C505.043 519.035 504.567 520.256 503.805 521.296C503.043 522.335 502.022 523.157 500.844 523.678L443.626 556.764C440.696 558.363 437.405 559.186 434.067 559.153ZM427.336 556.293C429.824 557.402 432.535 557.918 435.257 557.801C437.979 557.684 440.636 556.938 443.02 555.619L500.238 522.534C501.209 522.121 502.058 521.464 502.7 520.627C503.343 519.789 503.759 518.8 503.907 517.755C503.815 517.027 503.538 516.335 503.102 515.746C502.665 515.156 502.085 514.689 501.416 514.389L441.775 479.957C439.296 478.833 436.588 478.308 433.869 478.425C431.15 478.542 428.497 479.297 426.124 480.63L368.906 513.716C367.941 514.129 367.097 514.781 366.455 515.612C365.813 516.442 365.394 517.423 365.237 518.461C365.319 519.192 365.593 519.888 366.03 520.479C366.467 521.07 367.053 521.535 367.728 521.827L427.336 556.293Z" fill="#6B5E9A"/>
<path opacity="0.7" d="M253.864 541.18C250.845 541.207 247.868 540.466 245.214 539.026L62.521 433.543C61.4533 433.065 60.5285 432.317 59.838 431.373C59.1474 430.428 58.7149 429.32 58.5831 428.158C58.6296 427.254 58.9201 426.379 59.4238 425.626C59.9275 424.873 60.6256 424.271 61.444 423.883L296.34 288.277C298.772 287.166 301.431 286.642 304.103 286.747C306.775 286.852 309.385 287.584 311.722 288.883L494.415 394.366C495.483 394.844 496.408 395.592 497.098 396.536C497.789 397.481 498.221 398.589 498.353 399.751C498.303 400.659 498.008 401.536 497.498 402.289C496.988 403.042 496.283 403.642 495.458 404.026L260.596 539.632C258.525 540.725 256.205 541.258 253.864 541.18ZM303.038 288.042C300.935 287.992 298.854 288.467 296.98 289.421L62.1171 425.028C61.5068 425.308 60.9821 425.745 60.5975 426.295C60.2129 426.846 59.9823 427.489 59.9294 428.158C60.078 429.091 60.4663 429.969 61.0563 430.706C61.6463 431.444 62.4178 432.016 63.2951 432.365L245.887 537.848C248.02 539.031 250.398 539.701 252.834 539.806C255.27 539.911 257.697 539.448 259.923 538.454L494.785 402.848C495.401 402.581 495.934 402.152 496.325 401.607C496.716 401.062 496.952 400.42 497.007 399.751C496.86 398.813 496.473 397.93 495.883 397.186C495.293 396.443 494.521 395.866 493.641 395.51L311.049 290.061C308.598 288.706 305.838 288.011 303.038 288.042Z" fill="#6B5E9A"/>
<path opacity="0.4" d="M271.568 561.846L506.431 426.273C510.2 424.085 509.796 420.282 505.387 417.758L322.694 312.275C320.456 311.026 317.956 310.321 315.395 310.215C312.834 310.11 310.285 310.608 307.952 311.669L73.0894 447.275C69.3197 449.463 69.7236 453.267 74.1328 455.757L256.826 561.24C259.064 562.489 261.564 563.194 264.125 563.299C266.686 563.405 269.235 562.907 271.568 561.846Z" fill="#0B0244"/>
<path d="M260.798 514.086L488.828 382.451C492.463 380.33 492.194 376.628 487.784 374.205L310.409 271.785C308.24 270.582 305.82 269.904 303.342 269.805C300.863 269.705 298.396 270.187 296.138 271.213L68.1081 402.847C64.4395 404.968 64.9107 408.67 69.1515 411.093L246.493 513.513C248.668 514.717 251.094 515.395 253.578 515.494C256.061 515.593 258.534 515.111 260.798 514.086Z" fill="url(#paint0_linear)"/>
<path d="M59.2564 370.233L121.557 366.195L296.576 265.222C298.909 264.161 301.458 263.663 304.019 263.768C306.58 263.873 309.08 264.579 311.318 265.828L448.473 345.024L497.613 341.658V375.922C497.572 376.711 497.315 377.474 496.87 378.127C496.424 378.78 495.808 379.298 495.088 379.624L260.259 515.197C257.932 516.257 255.388 516.755 252.833 516.65C250.278 516.545 247.783 515.839 245.551 514.591L62.8578 409.108C61.9189 408.698 61.0993 408.058 60.4754 407.245C59.8514 406.433 59.4436 405.476 59.2901 404.463L59.2564 370.233Z" fill="url(#paint1_linear)"/>
<path d="M260.259 480.63L495.122 345.057C498.892 342.87 498.488 339.066 494.078 336.542L311.385 231.059C309.147 229.81 306.647 229.105 304.086 229C301.526 228.894 298.976 229.392 296.643 230.453L61.7806 366.06C58.0109 368.247 58.4148 372.051 62.8576 374.541L245.551 480.024C247.783 481.273 250.278 481.978 252.833 482.083C255.388 482.188 257.932 481.691 260.259 480.63Z" fill="url(#paint2_linear)"/>
<g opacity="0.5">
<path opacity="0.5" d="M326.397 276.497L141.415 383.293L253.124 447.78L438.106 340.985L326.397 276.497Z" fill="#24126A"/>
</g>
<path d="M320.775 230.487L296.508 86.6346L298.461 85.7932L295.465 84.144C295.127 83.9319 294.736 83.8193 294.337 83.8193C293.939 83.8193 293.548 83.9319 293.21 84.144L99.5106 196.19C98.6691 196.695 97.9804 197.418 97.5181 198.284C97.0557 199.149 96.837 200.124 96.8853 201.104L121.321 346.101C121.356 346.411 121.466 346.708 121.642 346.966C121.818 347.225 122.054 347.436 122.33 347.582L125.191 349.231L125.696 346.538H125.528L318.15 235.468C318.997 234.953 319.688 234.217 320.151 233.34C320.613 232.463 320.829 231.477 320.775 230.487Z" fill="url(#paint3_linear)"/>
<path d="M100.588 200.094L97.2219 198.714C96.8499 199.452 96.7091 200.285 96.818 201.104L121.253 346.101C121.288 346.411 121.399 346.708 121.575 346.967C121.751 347.225 121.987 347.436 122.263 347.582L125.124 349.231L125.629 346.538H125.461L135.221 340.918L100.588 200.094Z" fill="url(#paint4_linear)"/>
<path d="M321.281 237.151L127.514 349.029C125.999 349.87 124.72 349.399 124.451 347.851L100.016 202.854C99.9685 201.881 100.177 200.912 100.619 200.044C101.062 199.176 101.724 198.439 102.54 197.906L296.307 86.0286C297.821 85.1872 299.1 85.6584 299.369 87.2066L323.805 232.237C323.846 233.205 323.635 234.166 323.193 235.028C322.75 235.889 322.091 236.621 321.281 237.151Z" fill="#24126A"/>
<g opacity="0.51">
<path opacity="0.51" d="M293.782 95.2847L106.983 203.124L130.173 339.706L316.838 231.934L293.782 95.2847Z" fill="#453C9E"/>
</g>
<path d="M443.087 305.779L432.519 311.299L326.464 250.076C325.392 249.613 324.229 249.4 323.063 249.453C321.897 249.505 320.758 249.822 319.732 250.379L136.669 355.962C134.919 354.986 126.942 351.149 126.942 351.149L130.812 361.247C131.011 361.769 131.395 362.199 131.889 362.458L243.599 426.946C244.671 427.409 245.833 427.622 246.999 427.569C248.166 427.517 249.305 427.2 250.33 426.643L437.5 318.603C438.201 318.235 438.758 317.642 439.082 316.92L443.087 305.779Z" fill="url(#paint5_linear)"/>
<path d="M441.472 307.529L249.623 418.263C248.544 418.861 247.341 419.2 246.108 419.253C244.876 419.305 243.648 419.07 242.522 418.566L128.086 352.496C126.268 351.419 126.504 349.601 128.591 348.39L320.439 237.656C321.518 237.058 322.721 236.718 323.954 236.666C325.187 236.613 326.415 236.849 327.541 237.353L441.976 303.423C443.794 304.466 443.558 306.284 441.472 307.529Z" fill="url(#paint6_linear)"/>
<path d="M442.919 304.298C442.547 304.852 442.051 305.313 441.472 305.645L249.624 416.412C248.543 417.007 247.338 417.342 246.105 417.389C244.872 417.436 243.645 417.193 242.522 416.681L128.086 350.611C127.704 350.402 127.381 350.101 127.144 349.736C127.008 349.976 126.925 350.242 126.9 350.516C126.874 350.79 126.907 351.067 126.996 351.327C127.085 351.588 127.228 351.827 127.416 352.028C127.604 352.23 127.832 352.389 128.086 352.496L242.522 418.566C243.648 419.07 244.876 419.306 246.109 419.253C247.341 419.2 248.545 418.861 249.624 418.263L441.472 307.529C443.054 306.587 443.559 305.308 442.919 304.298Z" fill="white"/>
<path d="M191.8 394.332V392.212C191.8 392.01 191.8 391.909 192.069 392.01L199.474 396.284C199.559 396.345 199.629 396.426 199.676 396.52C199.723 396.614 199.746 396.718 199.743 396.823V398.91C199.743 399.112 199.743 399.213 199.474 399.112L192.069 394.837C191.988 394.78 191.922 394.704 191.875 394.616C191.828 394.529 191.803 394.431 191.8 394.332Z" fill="#2842A2"/>
<path d="M202.873 400.727V398.607C202.873 398.405 202.873 398.337 203.143 398.405L210.581 402.679C210.66 402.746 210.724 402.829 210.77 402.921C210.816 403.014 210.844 403.114 210.85 403.218V405.304C210.85 405.506 210.85 405.607 210.581 405.506L203.143 401.232C203.062 401.174 202.995 401.099 202.948 401.011C202.902 400.924 202.876 400.826 202.873 400.727Z" fill="#2842A2"/>
<path d="M157.94 346.303L317.343 254.249C317.854 253.954 318.435 253.798 319.026 253.798C319.616 253.798 320.197 253.954 320.708 254.249L377.455 287.099C377.636 287.211 377.785 287.367 377.889 287.552C377.993 287.738 378.047 287.947 378.047 288.159C378.047 288.372 377.993 288.581 377.889 288.766C377.785 288.952 377.636 289.108 377.455 289.219L218.053 381.206C217.541 381.501 216.961 381.657 216.37 381.657C215.779 381.657 215.199 381.501 214.687 381.206L157.839 348.423C157.663 348.303 157.521 348.14 157.426 347.95C157.331 347.759 157.287 347.547 157.297 347.335C157.307 347.122 157.371 346.915 157.484 346.735C157.597 346.554 157.754 346.405 157.94 346.303Z" fill="#ADB1F2"/>
<path d="M157.94 348.423L158.512 348.726L317.343 257.043C317.854 256.747 318.435 256.592 319.025 256.592C319.616 256.592 320.197 256.747 320.708 257.043L376.95 289.455L377.522 289.119C377.703 289.007 377.853 288.851 377.956 288.665C378.06 288.48 378.114 288.271 378.114 288.058C378.114 287.846 378.06 287.637 377.956 287.451C377.853 287.266 377.703 287.11 377.522 286.998L320.776 254.249C320.264 253.954 319.684 253.798 319.093 253.798C318.502 253.798 317.921 253.954 317.41 254.249L157.94 346.303C157.759 346.414 157.61 346.57 157.506 346.756C157.403 346.941 157.348 347.15 157.348 347.363C157.348 347.576 157.403 347.785 157.506 347.97C157.61 348.156 157.759 348.312 157.94 348.423Z" fill="#9198DB"/>
<path d="M325.05 262.597L186.583 342.533L180.424 338.966L318.891 259.029L325.05 262.597Z" fill="#24126A"/>
<path d="M340.129 271.314L210.278 346.269L204.119 342.735L333.97 267.746L340.129 271.314Z" fill="#24126A"/>
<path d="M349.957 276.968L197.084 365.252L190.925 361.684L343.798 273.4L349.957 276.968Z" fill="#24126A"/>
<path d="M359.785 282.656L206.912 370.94L200.753 367.372L353.659 279.089L359.785 282.656Z" fill="#24126A"/>
<path d="M369.646 288.311L216.74 376.595L210.581 373.061L363.487 284.777L369.646 288.311Z" fill="#24126A"/>
<path d="M178.236 347.346L172.076 350.914L165.917 347.346L172.076 343.812L178.236 347.346Z" fill="#24126A"/>
<path d="M199.945 352.26L187.155 359.631L180.996 356.063L193.786 348.692L199.945 352.26Z" fill="#24126A"/>
<path d="M323.469 368.55L366.449 343.745C366.771 343.597 367.045 343.36 367.236 343.062C367.427 342.763 367.529 342.416 367.529 342.062C367.529 341.707 367.427 341.36 367.236 341.062C367.045 340.764 366.771 340.527 366.449 340.379L337.066 323.55C336.122 323.071 335.079 322.822 334.02 322.822C332.962 322.822 331.918 323.071 330.974 323.55L287.993 348.356C287.671 348.503 287.398 348.741 287.207 349.039C287.015 349.337 286.913 349.684 286.913 350.039C286.913 350.393 287.015 350.74 287.207 351.038C287.398 351.337 287.671 351.574 287.993 351.722L317.376 368.55C318.32 369.029 319.364 369.279 320.423 369.279C321.481 369.279 322.525 369.029 323.469 368.55Z" fill="url(#paint7_linear)"/>
<path d="M287.993 349.534L330.974 324.694C331.918 324.215 332.961 323.966 334.02 323.966C335.078 323.966 336.122 324.215 337.066 324.694L366.449 341.523C366.884 341.771 367.244 342.132 367.492 342.567C367.964 341.725 367.492 340.783 366.449 340.11L337.066 323.281C336.122 322.802 335.078 322.552 334.02 322.552C332.961 322.552 331.918 322.802 330.974 323.281L287.993 348.086C286.849 348.76 286.479 349.702 286.95 350.543C287.191 350.112 287.554 349.761 287.993 349.534Z" fill="#9198DB"/>
<g opacity="0.11">
<g opacity="0.11">
<path opacity="0.11" d="M320.607 237.42L128.759 348.154C127.681 348.755 126.477 349.095 125.244 349.148C124.011 349.201 122.783 348.964 121.657 348.457L7.22171 282.353C5.4042 281.31 5.63981 279.492 7.76023 278.281L199.608 167.514C200.683 166.918 201.883 166.584 203.11 166.537C204.338 166.49 205.56 166.733 206.677 167.244L321.112 233.314C322.93 234.358 322.694 236.209 320.607 237.42Z" fill="url(#paint8_linear)"/>
<path opacity="0.11" d="M128.221 257.279L171.201 232.439C172.884 231.497 172.884 229.915 171.201 229.073L141.818 212.245C140.874 211.766 139.831 211.516 138.772 211.516C137.714 211.516 136.67 211.766 135.726 212.245L92.7456 236.781C92.3849 236.915 92.0738 237.156 91.8541 237.472C91.6344 237.788 91.5167 238.163 91.5167 238.548C91.5167 238.933 91.6344 239.308 91.8541 239.624C92.0738 239.94 92.3849 240.181 92.7456 240.315L122.129 257.144C123.062 257.644 124.1 257.917 125.159 257.94C126.217 257.963 127.266 257.737 128.221 257.279Z" fill="url(#paint9_linear)"/>
<path opacity="0.11" d="M92.7455 238.228L135.726 213.423C136.67 212.944 137.714 212.694 138.772 212.694C139.831 212.694 140.874 212.944 141.818 213.423L171.201 230.251C171.643 230.491 172.005 230.853 172.245 231.295C172.716 230.42 172.245 229.477 171.201 228.804L141.818 211.975C140.874 211.496 139.831 211.247 138.772 211.247C137.714 211.247 136.67 211.496 135.726 211.975L92.7455 236.781C91.6012 237.454 91.2646 238.43 91.7021 239.272C91.9415 238.83 92.304 238.468 92.7455 238.228Z" fill="#9198DB"/>
<path opacity="0.11" d="M73.8638 296.187L233.266 204.032C233.778 203.737 234.358 203.581 234.949 203.581C235.54 203.581 236.12 203.737 236.632 204.032L293.446 236.848C293.627 236.96 293.776 237.116 293.88 237.301C293.983 237.487 294.038 237.696 294.038 237.909C294.038 238.121 293.983 238.33 293.88 238.516C293.776 238.701 293.627 238.857 293.446 238.969L134.111 330.955C133.599 331.25 133.019 331.406 132.428 331.406C131.837 331.406 131.257 331.25 130.745 330.955L73.8638 298.172C73.7105 298.056 73.5861 297.906 73.5004 297.734C73.4148 297.562 73.3702 297.372 73.3702 297.18C73.3702 296.987 73.4148 296.797 73.5004 296.625C73.5861 296.453 73.7105 296.303 73.8638 296.187Z" fill="#ADB1F2"/>
<path opacity="0.11" d="M73.8638 298.172L74.436 298.509L233.266 206.792C233.778 206.497 234.358 206.341 234.949 206.341C235.54 206.341 236.12 206.497 236.632 206.792L292.874 239.305L293.446 238.969C293.627 238.857 293.776 238.701 293.88 238.516C293.983 238.33 294.038 238.121 294.038 237.909C294.038 237.696 293.983 237.487 293.88 237.301C293.776 237.116 293.627 236.96 293.446 236.848L236.699 204.032C236.188 203.737 235.607 203.581 235.016 203.581C234.425 203.581 233.845 203.737 233.333 204.032L73.8638 296.187C73.7105 296.303 73.5861 296.453 73.5004 296.625C73.4148 296.797 73.3702 296.987 73.3702 297.18C73.3702 297.372 73.4148 297.562 73.5004 297.734C73.5861 297.906 73.7105 298.056 73.8638 298.172Z" fill="#9198DB"/>
<path opacity="0.11" d="M278.603 234.627L139.732 314.799L145.218 317.963L284.089 237.791L278.603 234.627Z" fill="#24126A"/>
<path opacity="0.11" d="M263.962 226.179L131.957 302.379L137.476 305.543L269.448 229.343L263.962 226.179Z" fill="#24126A"/>
<path opacity="0.11" d="M122.129 308.068L109.81 315.169L115.296 318.367L127.615 311.231L122.129 308.068Z" fill="#24126A"/>
<path opacity="0.11" d="M133 318.67L124.417 323.618L129.937 326.815L138.52 321.867L133 318.67Z" fill="#24126A"/>
<path opacity="0.11" d="M254.807 220.895L100.622 309.885L106.141 313.083L260.293 224.059L254.807 220.895Z" fill="#24126A"/>
<path opacity="0.11" d="M245.618 215.577L91.4664 304.601L96.9526 307.765L251.138 218.774L245.618 215.577Z" fill="#24126A"/>
<path opacity="0.11" d="M236.463 210.292L82.2781 299.317L87.7979 302.481L241.95 213.456L236.463 210.292Z" fill="#24126A"/>
</g>
</g>
<path d="M495.122 342.399L260.259 477.938C257.932 478.998 255.388 479.496 252.833 479.391C250.278 479.286 247.783 478.58 245.551 477.332L62.8577 371.883C61.3787 371.186 60.1886 369.996 59.4919 368.517C58.6505 370.503 59.7612 372.859 62.8577 374.575L245.551 480.058C247.783 481.307 250.278 482.012 252.833 482.117C255.388 482.222 257.932 481.725 260.259 480.664L495.122 345.091C495.611 344.905 496.059 344.623 496.439 344.263C496.82 343.903 497.125 343.471 497.338 342.993C497.551 342.514 497.666 341.998 497.679 341.474C497.691 340.951 497.6 340.43 497.411 339.942C496.955 341.001 496.146 341.869 495.122 342.399Z" fill="white"/>
<path opacity="0.4" d="M151.175 89.7647L120.076 71.7915L151.175 53.8521L182.241 71.7915L151.175 89.7647Z" fill="#0B0244"/>
<path d="M151.175 71.7916L120.076 53.8521V17.9395L151.175 35.9126V71.7916Z" fill="url(#paint10_linear)"/>
<path d="M182.241 53.8521L151.175 71.7916V35.9126L182.241 17.9395V53.8521Z" fill="url(#paint11_linear)"/>
<path d="M151.175 35.9126L120.076 17.9395L151.175 0L182.241 17.9395L151.175 35.9126Z" fill="url(#paint12_linear)"/>
<path d="M151.175 34.6L121.22 17.3L120.076 17.9395L151.175 35.9127L182.241 17.9395L181.097 17.3L151.175 34.6Z" fill="white"/>
<path opacity="0.4" d="M438.106 583.118L393.341 557.302L438.106 531.487L482.837 557.302L438.106 583.118Z" fill="#0B0244"/>
<path d="M438.106 557.302L393.341 531.487V479.823L438.106 505.638V557.302Z" fill="url(#paint13_linear)"/>
<path d="M482.837 531.487L438.106 557.302V505.638L482.837 479.823V531.487Z" fill="url(#paint14_linear)"/>
<path d="M438.106 505.638L393.341 479.822L438.106 454.007L482.837 479.822L438.106 505.638Z" fill="url(#paint15_linear)"/>
<path d="M438.106 503.753L394.991 478.88L393.341 479.823L438.106 505.638L482.837 479.823L481.188 478.88L438.106 503.753Z" fill="white"/>
<path d="M167.028 305.106L160.936 308.64L158.041 293.191L164.133 289.657L167.028 305.106Z" fill="#BCBEFF"/>
<path d="M179.077 298.173L172.985 301.673L170.595 288.883L176.687 285.349L179.077 298.173Z" fill="#BCBEFF"/>
<path d="M191.127 291.205L185.035 294.706L181.299 274.747L187.391 271.246L191.127 291.205Z" fill="#BCBEFF"/>
<path d="M203.176 284.238L197.084 287.772L191.53 258.12L197.622 254.62L203.176 284.238Z" fill="#BCBEFF"/>
<path d="M215.226 277.305L209.133 280.805L192.978 194.507L199.07 191.007L215.226 277.305Z" fill="#BCBEFF"/>
<path d="M227.275 270.338L221.183 273.872L212.566 227.896L218.658 224.362L227.275 270.338Z" fill="#BCBEFF"/>
<path d="M239.324 263.37L233.232 266.905L220.745 200.195L226.837 196.695L239.324 263.37Z" fill="#BCBEFF"/>
<path d="M251.374 256.437L245.282 259.938L229.597 176.298L235.689 172.764L251.374 256.437Z" fill="#BCBEFF"/>
<path d="M263.389 249.47L257.331 253.004L242.623 174.616L248.715 171.115L263.389 249.47Z" fill="#BCBEFF"/>
<path d="M275.439 242.536L269.347 246.037L250.162 143.549L256.254 140.015L275.439 242.536Z" fill="#BCBEFF"/>
<path d="M287.488 235.569L281.396 239.07L260.394 126.788L266.486 123.288L287.488 235.569Z" fill="#BCBEFF"/>
<defs>
<linearGradient id="paint0_linear" x1="391.382" y1="322.978" x2="271.014" y2="532.418" gradientUnits="userSpaceOnUse">
<stop stop-color="#C0BFF6"/>
<stop offset="0.29" stop-color="#C5C4F7"/>
<stop offset="0.64" stop-color="#D3D2F9"/>
<stop offset="1" stop-color="#E9E9FD"/>
</linearGradient>
<linearGradient id="paint1_linear" x1="453.05" y1="390.125" x2="226.4" y2="390.125" gradientUnits="userSpaceOnUse">
<stop offset="0.35" stop-color="#BCBEFF"/>
<stop offset="0.44" stop-color="#B5B8FC"/>
<stop offset="0.57" stop-color="#A3A7F5"/>
<stop offset="0.72" stop-color="#848BE9"/>
<stop offset="0.88" stop-color="#5A64D8"/>
<stop offset="0.89" stop-color="#5761D7"/>
</linearGradient>
<linearGradient id="paint2_linear" x1="395.042" y1="283.784" x2="271.053" y2="499.524" gradientUnits="userSpaceOnUse">
<stop stop-color="#E9E9FD"/>
<stop offset="0.36" stop-color="#D3D2F9"/>
<stop offset="0.71" stop-color="#C5C4F7"/>
<stop offset="1" stop-color="#C0BFF6"/>
</linearGradient>
<linearGradient id="paint3_linear" x1="6146.78" y1="17160.4" x2="21038.7" y2="17160.4" gradientUnits="userSpaceOnUse">
<stop stop-color="#C0BFF6"/>
<stop offset="0.29" stop-color="#C5C4F7"/>
<stop offset="0.64" stop-color="#D3D2F9"/>
<stop offset="1" stop-color="#E9E9FD"/>
</linearGradient>
<linearGradient id="paint4_linear" x1="96.9526" y1="273.973" x2="135.39" y2="273.973" gradientUnits="userSpaceOnUse">
<stop stop-color="#5761D7"/>
<stop offset="0.18" stop-color="#5C66D9"/>
<stop offset="0.39" stop-color="#6A73DF"/>
<stop offset="0.61" stop-color="#8289E8"/>
<stop offset="0.85" stop-color="#A3A7F5"/>
<stop offset="1" stop-color="#BCBEFF"/>
</linearGradient>
<linearGradient id="paint5_linear" x1="11486.1" y1="18164.2" x2="41181.6" y2="18164.2" gradientUnits="userSpaceOnUse">
<stop stop-color="#5761D7"/>
<stop offset="0.18" stop-color="#5C66D9"/>
<stop offset="0.39" stop-color="#6A73DF"/>
<stop offset="0.61" stop-color="#8289E8"/>
<stop offset="0.85" stop-color="#A3A7F5"/>
<stop offset="1" stop-color="#BCBEFF"/>
</linearGradient>
<linearGradient id="paint6_linear" x1="21476.7" y1="18029.3" x2="51206.3" y2="18029.3" gradientUnits="userSpaceOnUse">
<stop stop-color="#C0BFF6"/>
<stop offset="0.29" stop-color="#C5C4F7"/>
<stop offset="0.64" stop-color="#D3D2F9"/>
<stop offset="1" stop-color="#E9E9FD"/>
</linearGradient>
<linearGradient id="paint7_linear" x1="7011.07" y1="5097.24" x2="8949.88" y2="5097.24" gradientUnits="userSpaceOnUse">
<stop stop-color="#C0BFF6"/>
<stop offset="0.29" stop-color="#C5C4F7"/>
<stop offset="0.64" stop-color="#D3D2F9"/>
<stop offset="1" stop-color="#E9E9FD"/>
</linearGradient>
<linearGradient id="paint8_linear" x1="9995.93" y1="14157.4" x2="39728.4" y2="14157.4" gradientUnits="userSpaceOnUse">
<stop stop-color="#C0BFF6"/>
<stop offset="0.29" stop-color="#C5C4F7"/>
<stop offset="0.64" stop-color="#D3D2F9"/>
<stop offset="1" stop-color="#E9E9FD"/>
</linearGradient>
<linearGradient id="paint9_linear" x1="2147.57" y1="3447.84" x2="4094.34" y2="3447.84" gradientUnits="userSpaceOnUse">
<stop stop-color="#C0BFF6"/>
<stop offset="0.29" stop-color="#C5C4F7"/>
<stop offset="0.64" stop-color="#D3D2F9"/>
<stop offset="1" stop-color="#E9E9FD"/>
</linearGradient>
<linearGradient id="paint10_linear" x1="163.865" y1="48.7799" x2="97.9037" y2="62.1946" gradientUnits="userSpaceOnUse">
<stop stop-color="#BCBEFF"/>
<stop offset="0.15" stop-color="#B5B8FC"/>
<stop offset="0.36" stop-color="#A3A7F5"/>
<stop offset="0.6" stop-color="#848BE9"/>
<stop offset="0.87" stop-color="#5A64D8"/>
<stop offset="0.89" stop-color="#5761D7"/>
</linearGradient>
<linearGradient id="paint11_linear" x1="1337.75" y1="-2387.15" x2="808.292" y2="-2480.19" gradientUnits="userSpaceOnUse">
<stop stop-color="#E9E9FD"/>
<stop offset="0.36" stop-color="#D3D2F9"/>
<stop offset="0.71" stop-color="#C5C4F7"/>
<stop offset="1" stop-color="#C0BFF6"/>
</linearGradient>
<linearGradient id="paint12_linear" x1="114.175" y1="12.6532" x2="191.982" y2="65.3898" gradientUnits="userSpaceOnUse">
<stop stop-color="#E9E9FD"/>
<stop offset="0.54" stop-color="#D1D0F9"/>
<stop offset="1" stop-color="#C0BFF6"/>
</linearGradient>
<linearGradient id="paint13_linear" x1="6400.75" y1="10832.7" x2="4741.26" y2="11124.3" gradientUnits="userSpaceOnUse">
<stop stop-color="#BCBEFF"/>
<stop offset="0.15" stop-color="#B5B8FC"/>
<stop offset="0.36" stop-color="#A3A7F5"/>
<stop offset="0.6" stop-color="#848BE9"/>
<stop offset="0.87" stop-color="#5A64D8"/>
<stop offset="0.89" stop-color="#5761D7"/>
</linearGradient>
<linearGradient id="paint14_linear" x1="6168.09" y1="9436.65" x2="5071.14" y2="9243.57" gradientUnits="userSpaceOnUse">
<stop stop-color="#E9E9FD"/>
<stop offset="0.36" stop-color="#D3D2F9"/>
<stop offset="0.71" stop-color="#C5C4F7"/>
<stop offset="1" stop-color="#C0BFF6"/>
</linearGradient>
<linearGradient id="paint15_linear" x1="23277.3" y1="7589.89" x2="25321.7" y2="5809.78" gradientUnits="userSpaceOnUse">
<stop stop-color="#E9E9FD"/>
<stop offset="0.54" stop-color="#D1D0F9"/>
<stop offset="1" stop-color="#C0BFF6"/>
</linearGradient>
</defs>
</svg>
